<?xml version="1.0" encoding="UTF-8"?>
<!DOCTYPE svg PUBLIC "-//W3C//DTD SVG 1.1//EN" "http://www.w3.org/Graphics/SVG/1.1/DTD/svg11.dtd">
<svg xmlns="http://www.w3.org/2000/svg" version="1.1" width="156px" height="150px" style="shape-rendering:geometricPrecision; text-rendering:geometricPrecision; image-rendering:optimizeQuality; fill-rule:evenodd; clip-rule:evenodd" xmlns:xlink="http://www.w3.org/1999/xlink">
<g><path style="opacity:1" fill="#fefdfe" d="M -0.5,-0.5 C 51.5,-0.5 103.5,-0.5 155.5,-0.5C 155.5,49.5 155.5,99.5 155.5,149.5C 103.5,149.5 51.5,149.5 -0.5,149.5C -0.5,99.5 -0.5,49.5 -0.5,-0.5 Z"/></g>
<g><path style="opacity:1" fill="#784898" d="M 36.5,0.5 C 63.1687,0.333359 89.8354,0.500026 116.5,1C 132.566,3.72919 143.066,12.8959 148,28.5C 148.667,55.1667 148.667,81.8333 148,108.5C 145.828,123.352 137.662,133.519 123.5,139C 121.167,139.333 118.833,139.667 116.5,140C 89.8333,140.667 63.1667,140.667 36.5,140C 20.8675,135.041 11.7008,124.541 9,108.5C 8.33333,81.8333 8.33333,55.1667 9,28.5C 13.6844,14.6498 22.8511,5.31645 36.5,0.5 Z"/></g>
<g><path style="opacity:1" fill="#fcfbfd" d="M 146.5,62.5 C 141.821,62.3342 137.155,62.5008 132.5,63C 131.944,63.3826 131.611,63.8826 131.5,64.5C 130.596,65.209 130.263,66.209 130.5,67.5C 132.833,67.5 135.167,67.5 137.5,67.5C 137.5,73.1667 137.5,78.8333 137.5,84.5C 138.791,84.7373 139.791,84.404 140.5,83.5C 142.446,78.6042 143.113,73.2709 142.5,67.5C 143.5,67.5 144.5,67.5 145.5,67.5C 145.442,75.5208 145.776,83.5208 146.5,91.5C 143.14,91.3841 139.807,91.0508 136.5,90.5C 129.99,87.9895 125.99,83.3229 124.5,76.5C 122.833,76.5 121.167,76.5 119.5,76.5C 123.579,89.7147 132.579,96.3814 146.5,96.5C 148.685,118.338 139.352,132.171 118.5,138C 91.1667,138.667 63.8333,138.667 36.5,138C 17.4029,131.326 8.73621,117.826 10.5,97.5C 25.4387,97.7208 34.772,90.7208 38.5,76.5C 37.448,76.3505 36.448,76.5172 35.5,77C 33.074,82.5848 29.4073,87.0848 24.5,90.5C 20.0148,92.3279 15.3482,93.3279 10.5,93.5C 10.5,84.8333 10.5,76.1667 10.5,67.5C 11.5,67.5 12.5,67.5 13.5,67.5C 13.5,73.5 13.5,79.5 13.5,85.5C 14.791,85.7373 15.791,85.404 16.5,84.5C 16.8333,84.5 17.1667,84.5 17.5,84.5C 19.45,79.2649 20.1167,73.5982 19.5,67.5C 22.8116,67.851 25.145,66.5177 26.5,63.5C 27.4345,62.4324 27.7678,61.099 27.5,59.5C 24.7562,59.2479 22.2562,59.9145 20,61.5C 19.2352,61.4301 18.7352,61.0967 18.5,60.5C 18.5,59.1667 18.5,57.8333 18.5,56.5C 16.8333,56.5 15.1667,56.5 13.5,56.5C 13.5,57.8333 13.5,59.1667 13.5,60.5C 12.791,61.404 11.791,61.7373 10.5,61.5C 10.5,56.8333 10.5,52.1667 10.5,47.5C 19.2805,47.3212 26.2805,50.6546 31.5,57.5C 32.5877,59.5825 33.5877,61.7492 34.5,64C 36.1341,64.4935 37.8008,64.6602 39.5,64.5C 39.7406,62.1016 39.0739,60.1016 37.5,58.5C 31.5975,48.0759 22.5975,43.0759 10.5,43.5C 8.74056,24.7764 16.4072,11.6097 33.5,4C 61.7716,2.3585 90.1049,2.02516 118.5,3C 132.775,5.94018 141.942,14.4402 146,28.5C 146.499,34.1569 146.666,39.8236 146.5,45.5C 135.205,44.2836 126.705,48.6169 121,58.5C 120.505,60.4727 120.338,62.4727 120.5,64.5C 123.766,64.5674 125.266,62.9008 125,59.5C 130.229,51.9691 137.396,48.3025 146.5,48.5C 146.109,53.2587 146.109,57.9253 146.5,62.5 Z"/></g>
<g><path style="opacity:1" fill="#7e509d" d="M 83.5,48.5 C 79.3537,47.353 75.0204,47.1864 70.5,48C 69.5842,48.2784 68.9175,48.7784 68.5,49.5C 63.8547,52.1453 60.188,55.8119 57.5,60.5C 56.3406,61.4558 55.1739,62.4558 54,63.5C 53.5,63.3333 53,63.1667 52.5,63C 53.464,61.2745 54.1307,59.4412 54.5,57.5C 57.6012,52.5635 61.6012,48.3969 66.5,45C 80.7111,40.5251 92.5444,44.0251 102,55.5C 103.131,58.4453 103.964,61.4453 104.5,64.5C 103.167,64.5 101.833,64.5 100.5,64.5C 98.0997,55.7681 92.433,50.4347 83.5,48.5 Z"/></g>
<g><path style="opacity:1" fill="#d0bfdb" d="M 83.5,48.5 C 78.4635,48.4126 73.4635,48.746 68.5,49.5C 68.9175,48.7784 69.5842,48.2784 70.5,48C 75.0204,47.1864 79.3537,47.353 83.5,48.5 Z"/></g>
<g><path style="opacity:1" fill="#9068aa" d="M 76.5,60.5 C 74.8333,60.5 73.1667,60.5 71.5,60.5C 71.5,59.1667 71.5,57.8333 71.5,56.5C 73.1667,56.5 74.8333,56.5 76.5,56.5C 76.5,57.8333 76.5,59.1667 76.5,60.5 Z"/></g>
<g><path style="opacity:1" fill="#9069aa" d="M 84.5,60.5 C 82.8333,60.5 81.1667,60.5 79.5,60.5C 79.5,59.1667 79.5,57.8333 79.5,56.5C 81.1667,56.5 82.8333,56.5 84.5,56.5C 84.5,57.8333 84.5,59.1667 84.5,60.5 Z"/></g>
<g><path style="opacity:1" fill="#926bac" d="M 18.5,60.5 C 16.8333,60.5 15.1667,60.5 13.5,60.5C 13.5,59.1667 13.5,57.8333 13.5,56.5C 15.1667,56.5 16.8333,56.5 18.5,56.5C 18.5,57.8333 18.5,59.1667 18.5,60.5 Z"/></g>
<g><path style="opacity:1" fill="#916aab" d="M 137.5,57.5 C 139.167,57.5 140.833,57.5 142.5,57.5C 142.616,60.9103 140.95,62.2436 137.5,61.5C 137.5,60.1667 137.5,58.8333 137.5,57.5 Z"/></g>
<g><path style="opacity:1" fill="#d5c6df" d="M 26.5,63.5 C 26.5,62.5 26.5,61.5 26.5,60.5C 23.2479,61.3766 19.9146,62.0433 16.5,62.5C 14.3035,62.4954 12.3035,62.162 10.5,61.5C 11.791,61.7373 12.791,61.404 13.5,60.5C 15.1667,60.5 16.8333,60.5 18.5,60.5C 18.7352,61.0967 19.2352,61.4301 20,61.5C 22.2562,59.9145 24.7562,59.2479 27.5,59.5C 27.7678,61.099 27.4345,62.4324 26.5,63.5 Z"/></g>
<g><path style="opacity:1" fill="#dbcfe4" d="M 87.5,59.5 C 87.5,60.5 87.5,61.5 87.5,62.5C 80.5,62.5 73.5,62.5 66.5,62.5C 68.1667,61.8333 69.8333,61.1667 71.5,60.5C 73.1667,60.5 74.8333,60.5 76.5,60.5C 77.5,61.8333 78.5,61.8333 79.5,60.5C 81.1667,60.5 82.8333,60.5 84.5,60.5C 84.56,61.0431 84.8933,61.3764 85.5,61.5C 86.1818,60.7573 86.8485,60.0906 87.5,59.5 Z"/></g>
<g><path style="opacity:1" fill="#7a4b9a" d="M 91.5,64.5 C 89.9639,67.0922 87.6305,68.0922 84.5,67.5C 84.666,72.8437 84.4994,78.1771 84,83.5C 82.9148,84.2931 81.7481,84.9598 80.5,85.5C 79.5041,79.5368 79.1707,73.5368 79.5,67.5C 78.5,67.5 77.5,67.5 76.5,67.5C 75.7927,73.0655 75.1261,78.7322 74.5,84.5C 73.609,85.1098 72.609,85.4431 71.5,85.5C 71.5,79.5 71.5,73.5 71.5,67.5C 70.5,67.5 69.5,67.5 68.5,67.5C 68.5,68.5 68.5,69.5 68.5,70.5C 64.0961,70.3383 62.7628,68.3383 64.5,64.5C 72.445,63.5632 80.445,63.2299 88.5,63.5C 88.5,62.5 88.5,61.5 88.5,60.5C 89.5,60.5 90.5,60.5 91.5,60.5C 91.5,61.8333 91.5,63.1667 91.5,64.5 Z"/></g>
<g><path style="opacity:1" fill="#9975b1" d="M 87.5,59.5 C 89.1667,59.5 90.8333,59.5 92.5,59.5C 92.7845,61.4147 92.4511,63.0813 91.5,64.5C 91.5,63.1667 91.5,61.8333 91.5,60.5C 90.5,60.5 89.5,60.5 88.5,60.5C 88.5,61.5 88.5,62.5 88.5,63.5C 80.445,63.2299 72.445,63.5632 64.5,64.5C 64.8333,63.5 65.5,62.8333 66.5,62.5C 73.5,62.5 80.5,62.5 87.5,62.5C 87.5,61.5 87.5,60.5 87.5,59.5 Z"/></g>
<g><path style="opacity:1" fill="#bba3cb" d="M 146.5,62.5 C 141.637,63.2656 136.637,63.9322 131.5,64.5C 131.611,63.8826 131.944,63.3826 132.5,63C 137.155,62.5008 141.821,62.3342 146.5,62.5 Z"/></g>
<g><path style="opacity:1" fill="#b397c5" d="M 31.5,57.5 C 33.5573,59.2702 35.3906,61.2702 37,63.5C 37.5,63.3333 38,63.1667 38.5,63C 37.6198,61.6439 37.2865,60.1439 37.5,58.5C 39.0739,60.1016 39.7406,62.1016 39.5,64.5C 37.8008,64.6602 36.1341,64.4935 34.5,64C 33.5877,61.7492 32.5877,59.5825 31.5,57.5 Z"/></g>
<g><path style="opacity:1" fill="#ac8fc0" d="M 54.5,57.5 C 54.1307,59.4412 53.464,61.2745 52.5,63C 53,63.1667 53.5,63.3333 54,63.5C 55.1739,62.4558 56.3406,61.4558 57.5,60.5C 56.962,62.1172 56.6287,63.7839 56.5,65.5C 54.8333,65.5 53.1667,65.5 51.5,65.5C 51.0181,62.1694 52.0181,59.5027 54.5,57.5 Z"/></g>
<g><path style="opacity:1" fill="#a88abd" d="M 13.5,67.5 C 13.8543,73.406 14.8543,79.0727 16.5,84.5C 15.791,85.404 14.791,85.7373 13.5,85.5C 13.5,79.5 13.5,73.5 13.5,67.5 Z"/></g>
<g><path style="opacity:1" fill="#ccbad8" d="M 19.5,67.5 C 20.1167,73.5982 19.45,79.2649 17.5,84.5C 18.1261,78.7322 18.7927,73.0655 19.5,67.5 Z"/></g>
<g><path style="opacity:1" fill="#7a4a99" d="M 28.5,67.5 C 39.1719,67.3335 49.8385,67.5002 60.5,68C 61.8333,69.6667 61.8333,71.3333 60.5,73C 49.8333,73.6667 39.1667,73.6667 28.5,73C 27.2475,71.1722 27.2475,69.3388 28.5,67.5 Z"/></g>
<g><path style="opacity:1" fill="#a180b7" d="M 76.5,67.5 C 77.1167,73.5982 76.45,79.2649 74.5,84.5C 75.1261,78.7322 75.7927,73.0655 76.5,67.5 Z"/></g>
<g><path style="opacity:1" fill="#7a4a99" d="M 96.5,67.5 C 107.172,67.3335 117.839,67.5002 128.5,68C 129.833,69.6667 129.833,71.3333 128.5,73C 117.833,73.6667 107.167,73.6667 96.5,73C 95.2475,71.1722 95.2475,69.3388 96.5,67.5 Z"/></g>
<g><path style="opacity:1" fill="#a483b9" d="M 137.5,67.5 C 137.856,73.077 138.856,78.4104 140.5,83.5C 139.791,84.404 138.791,84.7373 137.5,84.5C 137.5,78.8333 137.5,73.1667 137.5,67.5 Z"/></g>
<g><path style="opacity:1" fill="#d6c7df" d="M 71.5,85.5 C 70.6728,80.0149 70.1728,74.3482 70,68.5C 69.7216,69.4158 69.2216,70.0825 68.5,70.5C 68.5,69.5 68.5,68.5 68.5,67.5C 69.5,67.5 70.5,67.5 71.5,67.5C 71.5,73.5 71.5,79.5 71.5,85.5 Z"/></g>
<g><path style="opacity:1" fill="#bea7ce" d="M 136.5,90.5 C 139.807,91.0508 143.14,91.3841 146.5,91.5C 143.041,92.8647 139.708,92.5314 136.5,90.5 Z"/></g>
<g><path style="opacity:1" fill="#a483b9" d="M 24.5,90.5 C 20.3087,94.0146 15.642,95.0146 10.5,93.5C 15.3482,93.3279 20.0148,92.3279 24.5,90.5 Z"/></g>
<g><path style="opacity:1" fill="#7e509c" d="M 52.5,76.5 C 54.1439,76.2865 55.6439,76.6198 57,77.5C 64.4681,94.3013 76.3015,98.1347 92.5,89C 96.381,86.0724 98.881,82.2391 100,77.5C 101.356,76.6198 102.856,76.2865 104.5,76.5C 101.018,90.4253 92.0181,97.4253 77.5,97.5C 64.0261,96.6976 55.6928,89.6976 52.5,76.5 Z"/></g>
</svg>
