<?xml version="1.0" encoding="UTF-8"?>
<!DOCTYPE svg PUBLIC "-//W3C//DTD SVG 1.1//EN" "http://www.w3.org/Graphics/SVG/1.1/DTD/svg11.dtd">
<svg xmlns="http://www.w3.org/2000/svg" version="1.1" width="148px" height="164px" style="shape-rendering:geometricPrecision; text-rendering:geometricPrecision; image-rendering:optimizeQuality; fill-rule:evenodd; clip-rule:evenodd" xmlns:xlink="http://www.w3.org/1999/xlink">
<g><path style="opacity:1" fill="#fefefe" d="M -0.5,-0.5 C 48.8333,-0.5 98.1667,-0.5 147.5,-0.5C 147.5,54.1667 147.5,108.833 147.5,163.5C 98.1667,163.5 48.8333,163.5 -0.5,163.5C -0.5,108.833 -0.5,54.1667 -0.5,-0.5 Z"/></g>
<g><path style="opacity:1" fill="#754395" d="M 32.5,15.5 C 59.1687,15.3334 85.8354,15.5 112.5,16C 128.566,18.7292 139.066,27.8959 144,43.5C 144.667,70.1667 144.667,96.8333 144,123.5C 141.828,138.352 133.662,148.519 119.5,154C 117.167,154.333 114.833,154.667 112.5,155C 85.8333,155.667 59.1667,155.667 32.5,155C 16.8675,150.041 7.70084,139.541 5,123.5C 4.33333,96.8333 4.33333,70.1667 5,43.5C 9.68441,29.6498 18.8511,20.3165 32.5,15.5 Z"/></g>
<g><path style="opacity:1" fill="#fdfdfe" d="M 32.5,17.5 C 59.8354,17.3334 87.1687,17.5 114.5,18C 128.775,20.9402 137.942,29.4402 142,43.5C 142.667,70.8333 142.667,98.1667 142,125.5C 138.833,140.667 129.667,149.833 114.5,153C 87.1667,153.667 59.8333,153.667 32.5,153C 18.4402,148.942 9.94018,139.775 7,125.5C 6.33333,98.1667 6.33333,70.8333 7,43.5C 10.9904,30.3435 19.4904,21.6768 32.5,17.5 Z"/></g>
<g><path style="opacity:1" fill="#7d4e9b" d="M 72.5,40.5 C 78.1558,40.8674 79.9891,43.8674 78,49.5C 75.6667,52.1667 73.3333,52.1667 71,49.5C 70.068,46.1769 70.568,43.1769 72.5,40.5 Z"/></g>
<g><path style="opacity:1" fill="#7d4f9c" d="M 40.5,55.5 C 44.664,55.1429 47.8307,56.8095 50,60.5C 50.8333,65 49,66.8333 44.5,66C 40.7661,63.1972 39.4328,59.6972 40.5,55.5 Z"/></g>
<g><path style="opacity:1" fill="#7c4d9b" d="M 103.5,55.5 C 105.199,55.3398 106.866,55.5065 108.5,56C 109.059,56.7247 109.392,57.5581 109.5,58.5C 107.726,62.799 104.726,65.299 100.5,66C 99.1955,65.196 98.5288,64.0293 98.5,62.5C 99.7695,59.895 101.436,57.5616 103.5,55.5 Z"/></g>
<g><path style="opacity:1" fill="#b094c3" d="M 78.5,59.5 C 73.0116,59.2479 67.6782,59.9145 62.5,61.5C 63.6002,60.4415 64.9336,59.6082 66.5,59C 70.6888,58.1881 74.6888,58.3547 78.5,59.5 Z"/></g>
<g><path style="opacity:1" fill="#774697" d="M 78.5,59.5 C 96.0224,64.229 103.856,75.5623 102,93.5C 99.2925,101.217 94.6258,107.551 88,112.5C 88.7713,120.123 85.9379,125.957 79.5,130C 66.6436,131.481 60.4769,125.648 61,112.5C 44.8804,100.274 42.2138,85.6072 53,68.5C 55.7815,65.5377 58.9482,63.2044 62.5,61.5C 67.6782,59.9145 73.0116,59.2479 78.5,59.5 Z"/></g>
<g><path style="opacity:1" fill="#f7f5f9" d="M 82.5,108.5 C 81.2101,109.058 80.3768,110.058 80,111.5C 79.502,114.482 79.3354,117.482 79.5,120.5C 76.1667,123.167 72.8333,123.167 69.5,120.5C 69.6646,117.482 69.498,114.482 69,111.5C 68.3444,109.014 66.8444,107.347 64.5,106.5C 50.2407,94.3923 49.9073,81.8923 63.5,69C 77.1041,63.7188 87.2708,67.5521 94,80.5C 96.799,91.7416 93.1324,100.408 83,106.5C 82.5357,107.094 82.369,107.761 82.5,108.5 Z"/></g>
<g><path style="opacity:1" fill="#a685ba" d="M 68.5,75.5 C 70.1667,75.5 71.8333,75.5 73.5,75.5C 73.6162,78.9103 71.9496,80.2436 68.5,79.5C 68.5,78.1667 68.5,76.8333 68.5,75.5 Z"/></g>
<g><path style="opacity:1" fill="#a685ba" d="M 75.5,75.5 C 77.1667,75.5 78.8333,75.5 80.5,75.5C 80.6162,78.9103 78.9496,80.2436 75.5,79.5C 75.5,78.1667 75.5,76.8333 75.5,75.5 Z"/></g>
<g><path style="opacity:1" fill="#754496" d="M 84.5,84.5 C 82.8561,84.2865 81.3561,84.6198 80,85.5C 79.5008,90.1548 79.3342,94.8215 79.5,99.5C 79.1667,99.5 78.8333,99.5 78.5,99.5C 76.8616,95.0874 75.8616,90.4208 75.5,85.5C 74.5,85.5 73.5,85.5 72.5,85.5C 72.8195,90.3633 72.4861,95.03 71.5,99.5C 69.8616,95.0874 68.8616,90.4208 68.5,85.5C 66.5,86.1667 64.5,86.8333 62.5,87.5C 62.3253,85.3792 62.6586,83.3792 63.5,81.5C 70.5837,82.1255 77.2504,81.4589 83.5,79.5C 84.209,78.596 85.209,78.2627 86.5,78.5C 86.9465,81.0101 86.2798,83.0101 84.5,84.5 Z"/></g>
<g><path style="opacity:1" fill="#b399c5" d="M 83.5,79.5 C 77.2504,81.4589 70.5837,82.1255 63.5,81.5C 70.0665,80.799 76.7332,80.1323 83.5,79.5 Z"/></g>
<g><path style="opacity:1" fill="#7e4f9c" d="M 29.5,82.5 C 33.0071,81.9935 36.1737,82.6602 39,84.5C 39.8249,86.7008 39.3249,88.5341 37.5,90C 30.2763,91.94 27.6097,89.44 29.5,82.5 Z"/></g>
<g><path style="opacity:1" fill="#794999" d="M 111.5,82.5 C 114.685,82.0196 117.519,82.6863 120,84.5C 120.667,85.8333 120.667,87.1667 120,88.5C 116.927,89.6168 113.76,89.7835 110.5,89C 109.144,86.5859 109.478,84.4193 111.5,82.5 Z"/></g>
<g><path style="opacity:1" fill="#ac8ebf" d="M 68.5,85.5 C 68.8616,90.4208 69.8616,95.0874 71.5,99.5C 70.791,100.404 69.791,100.737 68.5,100.5C 68.5,95.5 68.5,90.5 68.5,85.5 Z"/></g>
<g><path style="opacity:1" fill="#ad90c0" d="M 75.5,85.5 C 75.8616,90.4208 76.8616,95.0874 78.5,99.5C 77.791,100.404 76.791,100.737 75.5,100.5C 75.5,95.5 75.5,90.5 75.5,85.5 Z"/></g>
<g><path style="opacity:1" fill="#d5c6df" d="M 84.5,84.5 C 83.791,85.404 82.791,85.7373 81.5,85.5C 82.1031,90.6186 81.4364,95.2853 79.5,99.5C 79.3342,94.8215 79.5008,90.1548 80,85.5C 81.3561,84.6198 82.8561,84.2865 84.5,84.5 Z"/></g>
<g><path style="opacity:1" fill="#7a4a99" d="M 43.5,110.5 C 47.1976,109.68 49.5309,111.013 50.5,114.5C 48.4924,117.34 45.9924,119.674 43,121.5C 40.942,120.942 39.7753,119.609 39.5,117.5C 40.8509,115.156 42.1843,112.822 43.5,110.5 Z"/></g>
<g><path style="opacity:1" fill="#7c4d9b" d="M 99.5,110.5 C 103.664,110.143 106.831,111.81 109,115.5C 109.787,120.217 107.954,121.883 103.5,120.5C 102.5,118.833 101.167,117.5 99.5,116.5C 98.3058,114.484 98.3058,112.484 99.5,110.5 Z"/></g>
<g><path style="opacity:1" fill="#a280b7" d="M 82.5,108.5 C 81.7378,112.671 80.7378,116.671 79.5,120.5C 79.3354,117.482 79.502,114.482 80,111.5C 80.3768,110.058 81.2101,109.058 82.5,108.5 Z"/></g>
<g><path style="opacity:1" fill="#9f7db6" d="M 64.5,106.5 C 66.8444,107.347 68.3444,109.014 69,111.5C 69.498,114.482 69.6646,117.482 69.5,120.5C 69.0108,115.5 67.3441,110.833 64.5,106.5 Z"/></g>
</svg>
