<?xml version="1.0" encoding="UTF-8"?>
<!DOCTYPE svg PUBLIC "-//W3C//DTD SVG 1.1//EN" "http://www.w3.org/Graphics/SVG/1.1/DTD/svg11.dtd">
<svg xmlns="http://www.w3.org/2000/svg" version="1.1" width="157px" height="152px" style="shape-rendering:geometricPrecision; text-rendering:geometricPrecision; image-rendering:optimizeQuality; fill-rule:evenodd; clip-rule:evenodd" xmlns:xlink="http://www.w3.org/1999/xlink">
<g><path style="opacity:1" fill="#fefefe" d="M -0.5,-0.5 C 51.8333,-0.5 104.167,-0.5 156.5,-0.5C 156.5,50.1667 156.5,100.833 156.5,151.5C 104.167,151.5 51.8333,151.5 -0.5,151.5C -0.5,100.833 -0.5,50.1667 -0.5,-0.5 Z"/></g>
<g><path style="opacity:1" fill="#754395" d="M 30.5,7.5 C 57.1687,7.33336 83.8354,7.50003 110.5,8C 126.566,10.7292 137.066,19.8959 142,35.5C 142.667,62.1667 142.667,88.8333 142,115.5C 139.828,130.352 131.662,140.519 117.5,146C 115.167,146.333 112.833,146.667 110.5,147C 83.8333,147.667 57.1667,147.667 30.5,147C 14.8675,142.041 5.70084,131.541 3,115.5C 2.33333,88.8333 2.33333,62.1667 3,35.5C 7.68441,21.6498 16.8511,12.3165 30.5,7.5 Z"/></g>
<g><path style="opacity:1" fill="#fefdfe" d="M 30.5,9.5 C 57.8354,9.33336 85.1687,9.50002 112.5,10C 126.775,12.9402 135.942,21.4402 140,35.5C 140.667,62.8333 140.667,90.1667 140,117.5C 136.833,132.667 127.667,141.833 112.5,145C 85.1667,145.667 57.8333,145.667 30.5,145C 16.4402,140.942 7.94018,131.775 5,117.5C 4.33333,90.1667 4.33333,62.8333 5,35.5C 8.9904,22.3435 17.4904,13.6768 30.5,9.5 Z"/></g>
<g><path style="opacity:1" fill="#b296c4" d="M 106.5,36.5 C 83.1215,36.187 59.7882,36.5203 36.5,37.5C 36.6107,36.8826 36.944,36.3826 37.5,36C 60.6703,35.1703 83.6703,35.337 106.5,36.5 Z"/></g>
<g><path style="opacity:1" fill="#734294" d="M 106.5,36.5 C 108.349,37.593 110.016,38.9263 111.5,40.5C 111.461,41.7562 111.961,42.7562 113,43.5C 113.5,66.831 113.667,90.1643 113.5,113.5C 111.932,114.473 110.265,114.64 108.5,114C 104.964,110.296 101.298,106.796 97.5,103.5C 77.2945,102.811 56.9612,102.144 36.5,101.5C 34.4042,99.5667 32.9042,97.2334 32,94.5C 31.5001,77.1699 31.3334,59.8365 31.5,42.5C 32.8333,40.5 34.5,38.8333 36.5,37.5C 59.7882,36.5203 83.1215,36.187 106.5,36.5 Z"/></g>
<g><path style="opacity:1" fill="#dacde3" d="M 104.5,43.5 C 82.4545,43.1882 60.4545,43.5216 38.5,44.5C 38.6107,43.8826 38.944,43.3826 39.5,43C 61.3372,42.1705 83.0039,42.3372 104.5,43.5 Z"/></g>
<g><path style="opacity:1" fill="#fcfbfc" d="M 104.5,43.5 C 105.167,43.8333 105.833,44.1667 106.5,44.5C 106.83,63.674 106.497,82.674 105.5,101.5C 103.704,100.207 102.037,98.7073 100.5,97C 80.5,96.6667 60.5,96.3333 40.5,96C 39.6667,95.1667 38.8333,94.3333 38,93.5C 37.1718,76.9948 37.3385,60.6615 38.5,44.5C 60.4545,43.5216 82.4545,43.1882 104.5,43.5 Z"/></g>
<g><path style="opacity:1" fill="#b194c3" d="M 111.5,40.5 C 112.458,40.9528 113.292,41.6195 114,42.5C 114.83,66.3369 114.663,90.0036 113.5,113.5C 113.667,90.1643 113.5,66.831 113,43.5C 111.961,42.7562 111.461,41.7562 111.5,40.5 Z"/></g>
<g><path style="opacity:1" fill="#b49ac6" d="M 31.5,42.5 C 31.3334,59.8365 31.5001,77.1699 32,94.5C 32.9042,97.2334 34.4042,99.5667 36.5,101.5C 33.4821,100.647 31.6488,98.6466 31,95.5C 30.1714,77.6619 30.3381,59.9952 31.5,42.5 Z"/></g>
<g><path style="opacity:1" fill="#d9cce3" d="M 106.5,44.5 C 107.662,63.9957 107.829,83.6624 107,103.5C 106.283,102.956 105.783,102.289 105.5,101.5C 106.497,82.674 106.83,63.674 106.5,44.5 Z"/></g>
<g><path style="opacity:1" fill="#8b61a6" d="M 74.5,52.5 C 76.5,52.5 78.5,52.5 80.5,52.5C 80.5,54.1667 80.5,55.8333 80.5,57.5C 78.5,57.5 76.5,57.5 74.5,57.5C 74.5,55.8333 74.5,54.1667 74.5,52.5 Z"/></g>
<g><path style="opacity:1" fill="#b296c4" d="M 64.5,52.5 C 66.2646,51.5386 68.2646,51.2053 70.5,51.5C 70.5,53.5 70.5,55.5 70.5,57.5C 68.1667,57.5 65.8333,57.5 63.5,57.5C 63.2155,55.5853 63.5489,53.9187 64.5,52.5 Z"/></g>
<g><path style="opacity:1" fill="#794999" d="M 64.5,52.5 C 66.1667,52.5 67.8333,52.5 69.5,52.5C 69.5,53.8333 69.5,55.1667 69.5,56.5C 67.8333,56.5 66.1667,56.5 64.5,56.5C 64.5,55.1667 64.5,53.8333 64.5,52.5 Z"/></g>
<g><path style="opacity:1" fill="#784898" d="M 86.5,65.5 C 84.5,65.5 82.5,65.5 80.5,65.5C 80.5,72.5 80.5,79.5 80.5,86.5C 79.5084,86.3284 78.8417,86.6618 78.5,87.5C 77.1667,87.5 75.8333,87.5 74.5,87.5C 74.5,80.1667 74.5,72.8333 74.5,65.5C 72.901,65.2322 71.5676,65.5655 70.5,66.5C 70.824,73.3543 70.4907,80.021 69.5,86.5C 67.8828,87.038 66.2161,87.3713 64.5,87.5C 64.5,80.1667 64.5,72.8333 64.5,65.5C 62.901,65.2322 61.5676,65.5655 60.5,66.5C 60.5,67.5 60.5,68.5 60.5,69.5C 58.5,69.5 56.5,69.5 54.5,69.5C 54.3367,67.1432 54.5034,64.8098 55,62.5C 55.3826,61.944 55.8826,61.6107 56.5,61.5C 65.9632,60.8838 75.2965,60.2171 84.5,59.5C 84.5,58.5 84.5,57.5 84.5,56.5C 86.5,56.5 88.5,56.5 90.5,56.5C 91.341,60.5749 90.0076,63.5749 86.5,65.5 Z"/></g>
<g><path style="opacity:1" fill="#9a76b2" d="M 84.5,59.5 C 75.2965,60.2171 65.9632,60.8838 56.5,61.5C 56.6107,60.8826 56.944,60.3826 57.5,60C 66.4938,59.5002 75.4938,59.3336 84.5,59.5 Z"/></g>
<g><path style="opacity:1" fill="#e3d9e9" d="M 70.5,66.5 C 71.5676,65.5655 72.901,65.2322 74.5,65.5C 74.5,72.8333 74.5,80.1667 74.5,87.5C 75.8333,87.5 77.1667,87.5 78.5,87.5C 77.0813,88.4511 75.4147,88.7845 73.5,88.5C 73.5,81.1667 73.5,73.8333 73.5,66.5C 72.5,66.5 71.5,66.5 70.5,66.5 Z"/></g>
<g><path style="opacity:1" fill="#d2c2dd" d="M 86.5,65.5 C 85.0813,66.4511 83.4147,66.7845 81.5,66.5C 81.824,73.3543 81.4907,80.021 80.5,86.5C 80.5,79.5 80.5,72.5 80.5,65.5C 82.5,65.5 84.5,65.5 86.5,65.5 Z"/></g>
<g><path style="opacity:1" fill="#c8b5d5" d="M 60.5,66.5 C 61.5676,65.5655 62.901,65.2322 64.5,65.5C 64.5,72.8333 64.5,80.1667 64.5,87.5C 66.2161,87.3713 67.8828,87.038 69.5,86.5C 68.0101,88.2798 66.0101,88.9465 63.5,88.5C 63.5,81.1667 63.5,73.8333 63.5,66.5C 62.5,66.5 61.5,66.5 60.5,66.5 Z"/></g>
<g><path style="opacity:1" fill="#b79ec8" d="M 36.5,101.5 C 56.9612,102.144 77.2945,102.811 97.5,103.5C 77.4972,103.667 57.4972,103.5 37.5,103C 36.944,102.617 36.6107,102.117 36.5,101.5 Z"/></g>
</svg>
