<?xml version="1.0" encoding="UTF-8"?>
<!DOCTYPE svg PUBLIC "-//W3C//DTD SVG 1.1//EN" "http://www.w3.org/Graphics/SVG/1.1/DTD/svg11.dtd">
<svg xmlns="http://www.w3.org/2000/svg" version="1.1" width="153px" height="150px" style="shape-rendering:geometricPrecision; text-rendering:geometricPrecision; image-rendering:optimizeQuality; fill-rule:evenodd; clip-rule:evenodd" xmlns:xlink="http://www.w3.org/1999/xlink">
<g><path style="opacity:1" fill="#fefdfe" d="M -0.5,-0.5 C 50.5,-0.5 101.5,-0.5 152.5,-0.5C 152.5,49.5 152.5,99.5 152.5,149.5C 101.5,149.5 50.5,149.5 -0.5,149.5C -0.5,99.5 -0.5,49.5 -0.5,-0.5 Z"/></g>
<g><path style="opacity:1" fill="#754395" d="M 32.5,3.5 C 59.1687,3.33336 85.8354,3.50003 112.5,4C 128.566,6.72919 139.066,15.8959 144,31.5C 144.667,58.1667 144.667,84.8333 144,111.5C 141.828,126.352 133.662,136.519 119.5,142C 117.167,142.333 114.833,142.667 112.5,143C 85.8333,143.667 59.1667,143.667 32.5,143C 16.8675,138.041 7.70084,127.541 5,111.5C 4.33333,84.8333 4.33333,58.1667 5,31.5C 9.68441,17.6498 18.8511,8.31645 32.5,3.5 Z"/></g>
<g><path style="opacity:1" fill="#fdfcfd" d="M 32.5,5.5 C 59.8354,5.33336 87.1687,5.50002 114.5,6C 128.775,8.94018 137.942,17.4402 142,31.5C 142.667,58.8333 142.667,86.1667 142,113.5C 138.833,128.667 129.667,137.833 114.5,141C 87.1667,141.667 59.8333,141.667 32.5,141C 18.4402,136.942 9.94018,127.775 7,113.5C 6.33333,86.1667 6.33333,58.8333 7,31.5C 10.9904,18.3435 19.4904,9.67682 32.5,5.5 Z"/></g>
<g><path style="opacity:1" fill="#744295" d="M 114.5,98.5 C 103.5,98.5 92.5,98.5 81.5,98.5C 81.5,100.833 81.5,103.167 81.5,105.5C 84.5,105.5 87.5,105.5 90.5,105.5C 90.5,107.5 90.5,109.5 90.5,111.5C 79.8333,111.5 69.1667,111.5 58.5,111.5C 58.5,109.5 58.5,107.5 58.5,105.5C 61.5,105.5 64.5,105.5 67.5,105.5C 67.5,103.167 67.5,100.833 67.5,98.5C 56.5,98.5 45.5,98.5 34.5,98.5C 33.8826,98.3893 33.3826,98.056 33,97.5C 32.3333,76.8333 32.3333,56.1667 33,35.5C 60.0946,34.3387 87.2612,34.1721 114.5,35C 115,35.5 115.5,36 116,36.5C 116.667,56.8333 116.667,77.1667 116,97.5C 115.617,98.056 115.117,98.3893 114.5,98.5 Z"/></g>
<g><path style="opacity:1" fill="#ece5f0" d="M 109.5,42.5 C 109.5,56.5 109.5,70.5 109.5,84.5C 86.1667,84.5 62.8333,84.5 39.5,84.5C 39.5,70.5 39.5,56.5 39.5,42.5C 62.8333,42.5 86.1667,42.5 109.5,42.5 Z"/></g>
<g><path style="opacity:1" fill="#9d7ab4" d="M 109.5,42.5 C 86.1667,42.5 62.8333,42.5 39.5,42.5C 39.5,56.5 39.5,70.5 39.5,84.5C 38.5041,70.3431 38.1707,56.0097 38.5,41.5C 62.3392,41.1691 86.0059,41.5024 109.5,42.5 Z"/></g>
<g><path style="opacity:1" fill="#fcfbfc" d="M 40.5,43.5 C 63.1667,43.5 85.8333,43.5 108.5,43.5C 108.5,56.8333 108.5,70.1667 108.5,83.5C 85.8333,83.5 63.1667,83.5 40.5,83.5C 40.5,70.1667 40.5,56.8333 40.5,43.5 Z"/></g>
<g><path style="opacity:1" fill="#7c4d9b" d="M 52.5,60.5 C 51.1789,63.2353 52.1789,64.9019 55.5,65.5C 57.0723,67.8669 56.739,69.8669 54.5,71.5C 50.2175,69.043 46.8842,65.7097 44.5,61.5C 46.9557,58.542 49.6223,55.7087 52.5,53C 53.7932,52.51 55.1266,52.3433 56.5,52.5C 56.6567,53.8734 56.49,55.2068 56,56.5C 54.6244,57.7051 53.4577,59.0384 52.5,60.5 Z"/></g>
<g><path style="opacity:1" fill="#9771af" d="M 68.5,51.5 C 70.1667,51.5 71.8333,51.5 73.5,51.5C 73.5,52.5 73.5,53.5 73.5,54.5C 71.8333,54.5 70.1667,54.5 68.5,54.5C 68.5,53.5 68.5,52.5 68.5,51.5 Z"/></g>
<g><path style="opacity:1" fill="#9772af" d="M 75.5,51.5 C 77.1667,51.5 78.8333,51.5 80.5,51.5C 80.5,52.5 80.5,53.5 80.5,54.5C 78.8333,54.5 77.1667,54.5 75.5,54.5C 75.5,53.5 75.5,52.5 75.5,51.5 Z"/></g>
<g><path style="opacity:1" fill="#7a4b99" d="M 92.5,52.5 C 97.7493,53.8979 101.749,57.0646 104.5,62C 101.855,64.6449 99.1884,67.3116 96.5,70C 95.2068,70.49 93.8734,70.6567 92.5,70.5C 92.3433,69.1266 92.51,67.7932 93,66.5C 94.6851,64.9825 96.1851,63.3159 97.5,61.5C 96.1851,59.6841 94.6851,58.0175 93,56.5C 92.51,55.2068 92.3433,53.8734 92.5,52.5 Z"/></g>
<g><path style="opacity:1" fill="#7c4d9b" d="M 86.5,54.5 C 86.8333,58.8333 84.8333,60.8333 80.5,60.5C 80.5,65.1667 80.5,69.8333 80.5,74.5C 79.0695,74.4208 77.7362,74.7542 76.5,75.5C 75.5059,70.544 75.1725,65.544 75.5,60.5C 74.791,59.596 73.791,59.2627 72.5,59.5C 72.5,64.5 72.5,69.5 72.5,74.5C 71.391,74.5569 70.391,74.8902 69.5,75.5C 69.5,70.5 69.5,65.5 69.5,60.5C 67.0706,60.8844 64.7373,61.551 62.5,62.5C 62.5,61.1667 62.5,59.8333 62.5,58.5C 62.8333,57.5 63.5,56.8333 64.5,56.5C 71.9964,56.9381 79.3298,56.2714 86.5,54.5 Z"/></g>
<g><path style="opacity:1" fill="#c4b0d2" d="M 86.5,54.5 C 79.3298,56.2714 71.9964,56.9381 64.5,56.5C 71.1263,56.0186 77.793,55.0186 84.5,53.5C 85.4164,53.5427 86.0831,53.8761 86.5,54.5 Z"/></g>
<g><path style="opacity:1" fill="#c3add1" d="M 52.5,60.5 C 53.075,62.4113 54.075,64.078 55.5,65.5C 52.1789,64.9019 51.1789,63.2353 52.5,60.5 Z"/></g>
<g><path style="opacity:1" fill="#cdbbd9" d="M 62.5,58.5 C 62.5,59.8333 62.5,61.1667 62.5,62.5C 64.7373,61.551 67.0706,60.8844 69.5,60.5C 69.5,65.5 69.5,70.5 69.5,75.5C 67.725,71.6136 66.8916,67.2803 67,62.5C 65.3005,63.4061 63.4672,63.7394 61.5,63.5C 61.2155,61.5853 61.5489,59.9187 62.5,58.5 Z"/></g>
<g><path style="opacity:1" fill="#b499c5" d="M 75.5,60.5 C 73.8616,64.9126 72.8616,69.5792 72.5,74.5C 72.5,69.5 72.5,64.5 72.5,59.5C 73.791,59.2627 74.791,59.596 75.5,60.5 Z"/></g>
<g><path style="opacity:1" fill="#efe9f2" d="M 72.5,88.5 C 77.3276,88.3852 78.6609,90.5519 76.5,95C 70.6861,95.3736 69.3528,93.207 72.5,88.5 Z"/></g>
<g><path style="opacity:1" fill="#a586ba" d="M 34.5,98.5 C 45.5,98.5 56.5,98.5 67.5,98.5C 67.5,100.833 67.5,103.167 67.5,105.5C 64.5,105.5 61.5,105.5 58.5,105.5C 58.5,107.5 58.5,109.5 58.5,111.5C 69.1667,111.5 79.8333,111.5 90.5,111.5C 90.5,109.5 90.5,107.5 90.5,105.5C 87.5,105.5 84.5,105.5 81.5,105.5C 81.5,103.167 81.5,100.833 81.5,98.5C 92.5,98.5 103.5,98.5 114.5,98.5C 104.013,99.4944 93.3464,99.8278 82.5,99.5C 82.5,101.167 82.5,102.833 82.5,104.5C 85.5,104.5 88.5,104.5 91.5,104.5C 91.5,107.167 91.5,109.833 91.5,112.5C 80.1667,112.5 68.8333,112.5 57.5,112.5C 57.5,109.833 57.5,107.167 57.5,104.5C 60.5,104.5 63.5,104.5 66.5,104.5C 66.5,102.833 66.5,101.167 66.5,99.5C 55.6536,99.8278 44.9869,99.4944 34.5,98.5 Z"/></g>
</svg>
