<?xml version="1.0" encoding="UTF-8"?>
<!DOCTYPE svg PUBLIC "-//W3C//DTD SVG 1.1//EN" "http://www.w3.org/Graphics/SVG/1.1/DTD/svg11.dtd">
<svg xmlns="http://www.w3.org/2000/svg" version="1.1" width="151px" height="152px" style="shape-rendering:geometricPrecision; text-rendering:geometricPrecision; image-rendering:optimizeQuality; fill-rule:evenodd; clip-rule:evenodd" xmlns:xlink="http://www.w3.org/1999/xlink">
<g><path style="opacity:1" fill="#fefdfe" d="M -0.5,-0.5 C 49.8333,-0.5 100.167,-0.5 150.5,-0.5C 150.5,50.1667 150.5,100.833 150.5,151.5C 100.167,151.5 49.8333,151.5 -0.5,151.5C -0.5,100.833 -0.5,50.1667 -0.5,-0.5 Z"/></g>
<g><path style="opacity:1" fill="#754395" d="M 32.5,8.5 C 59.1687,8.33336 85.8354,8.50003 112.5,9C 128.566,11.7292 139.066,20.8959 144,36.5C 144.667,63.1667 144.667,89.8333 144,116.5C 141.828,131.352 133.662,141.519 119.5,147C 117.167,147.333 114.833,147.667 112.5,148C 85.8333,148.667 59.1667,148.667 32.5,148C 16.8675,143.041 7.70084,132.541 5,116.5C 4.33333,89.8333 4.33333,63.1667 5,36.5C 9.68441,22.6498 18.8511,13.3165 32.5,8.5 Z"/></g>
<g><path style="opacity:1" fill="#fefdfe" d="M 32.5,10.5 C 59.8354,10.3334 87.1687,10.5 114.5,11C 128.775,13.9402 137.942,22.4402 142,36.5C 142.667,63.8333 142.667,91.1667 142,118.5C 138.833,133.667 129.667,142.833 114.5,146C 87.1667,146.667 59.8333,146.667 32.5,146C 18.4402,141.942 9.94018,132.775 7,118.5C 6.33333,91.1667 6.33333,63.8333 7,36.5C 10.9904,23.3435 19.4904,14.6768 32.5,10.5 Z"/></g>
<g><path style="opacity:1" fill="#744294" d="M 76.5,32.5 C 90.602,45.7827 96.4353,62.1161 94,81.5C 94.7175,82.4506 95.5509,82.6172 96.5,82C 99.2931,78.9192 101.46,75.4192 103,71.5C 109.955,87.5539 108.622,102.887 99,117.5C 89.7543,125.855 78.9209,128.688 66.5,126C 45.8808,117.929 38.0475,103.095 43,81.5C 44.5843,77.3253 46.9177,73.6587 50,70.5C 58.0391,64.1283 65.0391,56.7949 71,48.5C 71.7388,45.4535 72.5721,42.4535 73.5,39.5C 73.9174,36.8411 74.9174,34.5078 76.5,32.5 Z"/></g>
<g><path style="opacity:1" fill="#a07fb7" d="M 76.5,32.5 C 74.9174,34.5078 73.9174,36.8411 73.5,39.5C 73.3354,36.4816 73.502,33.4816 74,30.5C 74.9947,31.0659 75.828,31.7326 76.5,32.5 Z"/></g>
<g><path style="opacity:1" fill="#f8f5f9" d="M 63.5,82.5 C 70.8635,82.1694 78.1968,82.5027 85.5,83.5C 86.7598,84.3816 87.9264,85.3816 89,86.5C 89.9148,92.9441 89.5815,99.2774 88,105.5C 85.3255,107.871 82.1589,109.037 78.5,109C 75.8333,113.667 73.1667,113.667 70.5,109C 61.1082,109.441 57.4416,104.941 59.5,95.5C 58.6546,90.293 59.9879,85.9597 63.5,82.5 Z"/></g>
<g><path style="opacity:1" fill="#80539e" d="M 79.5,94.5 C 80.5,94.5 81.5,94.5 82.5,94.5C 82.5,95.5 82.5,96.5 82.5,97.5C 81.5,97.5 80.5,97.5 79.5,97.5C 79.5,96.5 79.5,95.5 79.5,94.5 Z"/></g>
<g><path style="opacity:1" fill="#8559a2" d="M 66.5,94.5 C 67.5,94.5 68.5,94.5 69.5,94.5C 69.5,95.5 69.5,96.5 69.5,97.5C 68.5,97.5 67.5,97.5 66.5,97.5C 66.5,96.5 66.5,95.5 66.5,94.5 Z"/></g>
<g><path style="opacity:1" fill="#8a61a6" d="M 72.5,94.5 C 73.8333,94.5 75.1667,94.5 76.5,94.5C 76.5,95.5 76.5,96.5 76.5,97.5C 75.1667,97.5 73.8333,97.5 72.5,97.5C 72.5,96.5 72.5,95.5 72.5,94.5 Z"/></g>
</svg>
