<?xml version="1.0" encoding="UTF-8"?>
<!DOCTYPE svg PUBLIC "-//W3C//DTD SVG 1.1//EN" "http://www.w3.org/Graphics/SVG/1.1/DTD/svg11.dtd">
<svg xmlns="http://www.w3.org/2000/svg" version="1.1" width="152px" height="163px" style="shape-rendering:geometricPrecision; text-rendering:geometricPrecision; image-rendering:optimizeQuality; fill-rule:evenodd; clip-rule:evenodd" xmlns:xlink="http://www.w3.org/1999/xlink">
<g><path style="opacity:1" fill="#fefefe" d="M -0.5,-0.5 C 50.1667,-0.5 100.833,-0.5 151.5,-0.5C 151.5,53.8333 151.5,108.167 151.5,162.5C 100.833,162.5 50.1667,162.5 -0.5,162.5C -0.5,108.167 -0.5,53.8333 -0.5,-0.5 Z"/></g>
<g><path style="opacity:1" fill="#754395" d="M 32.5,14.5 C 59.1687,14.3334 85.8354,14.5 112.5,15C 128.566,17.7292 139.066,26.8959 144,42.5C 144.667,69.1667 144.667,95.8333 144,122.5C 141.828,137.352 133.662,147.519 119.5,153C 117.167,153.333 114.833,153.667 112.5,154C 85.8333,154.667 59.1667,154.667 32.5,154C 16.8675,149.041 7.70084,138.541 5,122.5C 4.33333,95.8333 4.33333,69.1667 5,42.5C 9.68441,28.6498 18.8511,19.3165 32.5,14.5 Z"/></g>
<g><path style="opacity:1" fill="#fefdfe" d="M 32.5,16.5 C 59.8354,16.3334 87.1687,16.5 114.5,17C 128.775,19.9402 137.942,28.4402 142,42.5C 142.667,69.8333 142.667,97.1667 142,124.5C 138.833,139.667 129.667,148.833 114.5,152C 87.1667,152.667 59.8333,152.667 32.5,152C 18.4402,147.942 9.94018,138.775 7,124.5C 6.33333,97.1667 6.33333,69.8333 7,42.5C 10.9904,29.3435 19.4904,20.6768 32.5,16.5 Z"/></g>
<g><path style="opacity:1" fill="#b99fc9" d="M 109.5,54.5 C 83.4555,54.1848 57.4555,54.5181 31.5,55.5C 31.6107,54.8826 31.944,54.3826 32.5,54C 58.3366,53.1699 84.0033,53.3366 109.5,54.5 Z"/></g>
<g><path style="opacity:1" fill="#794999" d="M 109.5,54.5 C 111.716,55.2026 113.549,56.5359 115,58.5C 115.168,67.5184 115.668,76.5184 116.5,85.5C 124.766,91.4575 127.599,99.4575 125,109.5C 123.277,114.97 120.11,119.304 115.5,122.5C 108.93,124.672 102.264,125.005 95.5,123.5C 92.0814,121.588 89.0814,119.088 86.5,116C 68.5,115.667 50.5,115.333 32.5,115C 31.6266,113.955 30.6266,113.122 29.5,112.5C 28.3607,94.8772 28.194,77.2105 29,59.5C 30.0386,58.7562 30.5386,57.7562 30.5,56.5C 30.5,55.8333 30.8333,55.5 31.5,55.5C 57.4555,54.5181 83.4555,54.1848 109.5,54.5 Z"/></g>
<g><path style="opacity:1" fill="#a483b9" d="M 30.5,56.5 C 30.5386,57.7562 30.0386,58.7562 29,59.5C 28.194,77.2105 28.3607,94.8772 29.5,112.5C 28.8826,112.389 28.3826,112.056 28,111.5C 27.3333,93.8333 27.3333,76.1667 28,58.5C 28.7083,57.6195 29.5416,56.9528 30.5,56.5 Z"/></g>
<g><path style="opacity:1" fill="#f5f2f8" d="M 109.5,61.5 C 109.5,68.1667 109.5,74.8333 109.5,81.5C 96.6557,81.1713 83.989,81.5046 71.5,82.5C 70.5655,83.5676 70.2322,84.901 70.5,86.5C 76.5368,86.1707 82.5368,86.5041 88.5,87.5C 86.2663,89.3813 84.933,91.7147 84.5,94.5C 79.5,94.5 74.5,94.5 69.5,94.5C 69.5,96.1667 69.5,97.8333 69.5,99.5C 73.8333,99.5 78.1667,99.5 82.5,99.5C 82.5,102.833 82.5,106.167 82.5,109.5C 66.4965,109.667 50.4965,109.5 34.5,109C 33.5086,92.9109 33.1752,76.7442 33.5,60.5C 59.0055,60.1689 84.3388,60.5023 109.5,61.5 Z"/></g>
<g><path style="opacity:1" fill="#9a76b2" d="M 109.5,61.5 C 110.491,68.3134 110.825,75.3134 110.5,82.5C 97.5,82.5 84.5,82.5 71.5,82.5C 83.989,81.5046 96.6557,81.1713 109.5,81.5C 109.5,74.8333 109.5,68.1667 109.5,61.5 Z"/></g>
<g><path style="opacity:1" fill="#764596" d="M 47.5,65.5 C 57.2117,64.7091 61.0451,69.0424 59,78.5C 52.675,85.6344 47.3417,84.9678 43,76.5C 42.3333,74.5 42.3333,72.5 43,70.5C 44.7073,68.9625 46.2073,67.2959 47.5,65.5 Z"/></g>
<g><path style="opacity:1" fill="#774798" d="M 70.5,69.5 C 83.1667,69.5 95.8333,69.5 108.5,69.5C 108.5,70.8333 108.5,72.1667 108.5,73.5C 95.8333,73.5 83.1667,73.5 70.5,73.5C 70.5,72.1667 70.5,70.8333 70.5,69.5 Z"/></g>
<g><path style="opacity:1" fill="#f5f2f7" d="M 120.5,96.5 C 120.9,102.654 120.233,108.654 118.5,114.5C 107.778,124.506 97.9446,123.84 89,112.5C 83.2576,93.7935 90.0909,84.9601 109.5,86C 114.376,88.3786 118.042,91.8786 120.5,96.5 Z"/></g>
<g><path style="opacity:1" fill="#754395" d="M 46.5,87.5 C 58.703,86.0386 64.3696,91.372 63.5,103.5C 55.5,103.5 47.5,103.5 39.5,103.5C 38.0617,96.3868 40.3951,91.0534 46.5,87.5 Z"/></g>
<g><path style="opacity:1" fill="#9a76b2" d="M 108.5,95.5 C 107.167,95.5 105.833,95.5 104.5,95.5C 104.5,94.5 104.5,93.5 104.5,92.5C 105.833,92.5 107.167,92.5 108.5,92.5C 108.5,93.5 108.5,94.5 108.5,95.5 Z"/></g>
<g><path style="opacity:1" fill="#9f7cb5" d="M 84.5,94.5 C 80.03,95.4861 75.3633,95.8195 70.5,95.5C 70.5,96.5 70.5,97.5 70.5,98.5C 74.7016,98.1832 78.7016,98.5166 82.5,99.5C 78.1667,99.5 73.8333,99.5 69.5,99.5C 69.5,97.8333 69.5,96.1667 69.5,94.5C 74.5,94.5 79.5,94.5 84.5,94.5 Z"/></g>
<g><path style="opacity:1" fill="#8e66a9" d="M 98.5,92.5 C 99.5,92.5 100.5,92.5 101.5,92.5C 101.5,93.5 101.5,94.5 101.5,95.5C 100.5,95.5 99.5,95.5 98.5,95.5C 98.5,94.5 98.5,93.5 98.5,92.5 Z"/></g>
<g><path style="opacity:1" fill="#d1c1dc" d="M 98.5,92.5 C 99.5676,91.5655 100.901,91.2322 102.5,91.5C 102.215,93.288 102.548,94.9547 103.5,96.5C 104.107,96.3764 104.44,96.0431 104.5,95.5C 105.833,95.5 107.167,95.5 108.5,95.5C 108.842,96.3382 109.508,96.6716 110.5,96.5C 105.36,97.4881 100.026,97.8214 94.5,97.5C 95.8333,96.8333 97.1667,96.1667 98.5,95.5C 99.5,95.5 100.5,95.5 101.5,95.5C 101.5,94.5 101.5,93.5 101.5,92.5C 100.5,92.5 99.5,92.5 98.5,92.5 Z"/></g>
<g><path style="opacity:1" fill="#ad90c1" d="M 110.5,95.5 C 111.568,94.5655 112.901,94.2322 114.5,94.5C 114.784,96.4147 114.451,98.0813 113.5,99.5C 113.5,98.1667 113.5,96.8333 113.5,95.5C 112.5,95.5 111.5,95.5 110.5,95.5 Z"/></g>
<g><path style="opacity:1" fill="#794a99" d="M 110.5,95.5 C 111.5,95.5 112.5,95.5 113.5,95.5C 113.5,96.8333 113.5,98.1667 113.5,99.5C 111.833,100.167 110.167,100.833 108.5,101.5C 107.834,105.353 107.167,109.353 106.5,113.5C 105.833,109.353 105.166,105.353 104.5,101.5C 102.57,105.373 101.903,109.706 102.5,114.5C 101.167,114.5 99.8333,114.5 98.5,114.5C 98.5,109.833 98.5,105.167 98.5,100.5C 97.5,100.5 96.5,100.5 95.5,100.5C 95.5,101.5 95.5,102.5 95.5,103.5C 94.5,103.5 93.5,103.5 92.5,103.5C 92.0535,100.99 92.7202,98.9899 94.5,97.5C 100.026,97.8214 105.36,97.4881 110.5,96.5C 110.5,96.1667 110.5,95.8333 110.5,95.5 Z"/></g>
<g><path style="opacity:1" fill="#cdbbd9" d="M 120.5,96.5 C 123.037,102.073 122.871,107.74 120,113.5C 119.617,114.056 119.117,114.389 118.5,114.5C 120.233,108.654 120.9,102.654 120.5,96.5 Z"/></g>
<g><path style="opacity:1" fill="#926bac" d="M 104.5,101.5 C 105.166,105.353 105.833,109.353 106.5,113.5C 107.167,109.353 107.834,105.353 108.5,101.5C 108.5,105.833 108.5,110.167 108.5,114.5C 107.167,114.5 105.833,114.5 104.5,114.5C 104.5,110.167 104.5,105.833 104.5,101.5 Z"/></g>
<g><path style="opacity:1" fill="#b89dc8" d="M 115.5,122.5 C 114.653,123.966 113.32,124.8 111.5,125C 106.5,125.667 101.5,125.667 96.5,125C 95.944,124.617 95.6107,124.117 95.5,123.5C 102.264,125.005 108.93,124.672 115.5,122.5 Z"/></g>
</svg>
