<?xml version="1.0" encoding="UTF-8"?>
<!DOCTYPE svg PUBLIC "-//W3C//DTD SVG 1.1//EN" "http://www.w3.org/Graphics/SVG/1.1/DTD/svg11.dtd">
<svg xmlns="http://www.w3.org/2000/svg" version="1.1" width="164px" height="150px" style="shape-rendering:geometricPrecision; text-rendering:geometricPrecision; image-rendering:optimizeQuality; fill-rule:evenodd; clip-rule:evenodd" xmlns:xlink="http://www.w3.org/1999/xlink">
<g><path style="opacity:1" fill="#fefefe" d="M -0.5,-0.5 C 54.1667,-0.5 108.833,-0.5 163.5,-0.5C 163.5,49.5 163.5,99.5 163.5,149.5C 108.833,149.5 54.1667,149.5 -0.5,149.5C -0.5,99.5 -0.5,49.5 -0.5,-0.5 Z"/></g>
<g><path style="opacity:1" fill="#754395" d="M 39.5,8.5 C 66.1687,8.33336 92.8354,8.50003 119.5,9C 135.566,11.7292 146.066,20.8959 151,36.5C 151.667,63.1667 151.667,89.8333 151,116.5C 148.828,131.352 140.662,141.519 126.5,147C 124.167,147.333 121.833,147.667 119.5,148C 92.8333,148.667 66.1667,148.667 39.5,148C 23.8675,143.041 14.7008,132.541 12,116.5C 11.3333,89.8333 11.3333,63.1667 12,36.5C 16.6844,22.6498 25.8511,13.3165 39.5,8.5 Z"/></g>
<g><path style="opacity:1" fill="#fefdfe" d="M 39.5,10.5 C 66.8354,10.3334 94.1687,10.5 121.5,11C 135.775,13.9402 144.942,22.4402 149,36.5C 149.667,63.8333 149.667,91.1667 149,118.5C 145.833,133.667 136.667,142.833 121.5,146C 94.1667,146.667 66.8333,146.667 39.5,146C 25.4402,141.942 16.9402,132.775 14,118.5C 13.3333,91.1667 13.3333,63.8333 14,36.5C 17.9904,23.3435 26.4904,14.6768 39.5,10.5 Z"/></g>
<g><path style="opacity:1" fill="#9f7db5" d="M 86.5,40.5 C 81.1301,40.3921 75.7968,40.7255 70.5,41.5C 73.356,39.9942 76.5226,39.3275 80,39.5C 82.3608,39.5039 84.5274,39.8373 86.5,40.5 Z"/></g>
<g><path style="opacity:1" fill="#774797" d="M 86.5,40.5 C 103.4,43.3975 114.4,53.0641 119.5,69.5C 119.975,77.3121 119.308,84.9787 117.5,92.5C 116.427,95.6439 115.093,98.6439 113.5,101.5C 110.167,104.167 107.167,107.167 104.5,110.5C 81.0765,122.962 61.9099,118.295 47,96.5C 37.6895,73.539 43.5228,55.7057 64.5,43C 66.5183,42.4954 68.5183,41.9954 70.5,41.5C 75.7968,40.7255 81.1301,40.3921 86.5,40.5 Z"/></g>
<g><path style="opacity:1" fill="#f9f6fa" d="M 91.5,109.5 C 87.8119,109.55 84.1452,109.884 80.5,110.5C 76.1568,109.831 71.8235,109.164 67.5,108.5C 49.564,97.5999 44.3973,82.2666 52,62.5C 65.9026,43.6073 82.7359,40.4406 102.5,53C 115.885,65.7181 118.051,80.2181 109,96.5C 104.652,102.915 98.8183,107.248 91.5,109.5 Z"/></g>
<g><path style="opacity:1" fill="#9d7ab4" d="M 71.5,58.5 C 73.8333,58.5 76.1667,58.5 78.5,58.5C 78.5,60.5 78.5,62.5 78.5,64.5C 76.1667,64.5 73.8333,64.5 71.5,64.5C 71.5,62.5 71.5,60.5 71.5,58.5 Z"/></g>
<g><path style="opacity:1" fill="#6f3c91" d="M 72.5,59.5 C 74.1667,59.5 75.8333,59.5 77.5,59.5C 77.5,60.8333 77.5,62.1667 77.5,63.5C 75.8333,63.5 74.1667,63.5 72.5,63.5C 72.5,62.1667 72.5,60.8333 72.5,59.5 Z"/></g>
<g><path style="opacity:1" fill="#b397c4" d="M 83.5,58.5 C 83.5,60.1667 83.5,61.8333 83.5,63.5C 85.5,63.5 87.5,63.5 89.5,63.5C 89.5,61.8333 89.5,60.1667 89.5,58.5C 90.4614,60.2646 90.7947,62.2646 90.5,64.5C 87.8333,64.5 85.1667,64.5 82.5,64.5C 82.2053,62.2646 82.5386,60.2646 83.5,58.5 Z"/></g>
<g><path style="opacity:1" fill="#764596" d="M 83.5,58.5 C 85.5,58.5 87.5,58.5 89.5,58.5C 89.5,60.1667 89.5,61.8333 89.5,63.5C 87.5,63.5 85.5,63.5 83.5,63.5C 83.5,61.8333 83.5,60.1667 83.5,58.5 Z"/></g>
<g><path style="opacity:1" fill="#774697" d="M 83.5,99.5 C 83.5,90.8333 83.5,82.1667 83.5,73.5C 81.5853,73.2155 79.9187,73.5489 78.5,74.5C 78.5,82.1667 78.5,89.8333 78.5,97.5C 76.079,97.8782 73.7457,98.5448 71.5,99.5C 71.5,90.8333 71.5,82.1667 71.5,73.5C 67.5,72.8333 65.8333,74.5 66.5,78.5C 64.5,78.5 62.5,78.5 60.5,78.5C 59.7691,74.3966 60.7691,70.8966 63.5,68C 73.828,67.5002 84.1613,67.3335 94.5,67.5C 94.5,66.1667 94.5,64.8333 94.5,63.5C 96.8333,63.5 99.1667,63.5 101.5,63.5C 101.349,71.3165 97.3489,74.9831 89.5,74.5C 89.8308,82.1955 89.4975,89.8622 88.5,97.5C 86.9246,98.4565 85.258,99.1231 83.5,99.5 Z"/></g>
<g><path style="opacity:1" fill="#d1c0db" d="M 71.5,99.5 C 70.8334,91.3237 70.1667,82.9904 69.5,74.5C 68.9432,76.3316 67.9432,77.6649 66.5,78.5C 65.8333,74.5 67.5,72.8333 71.5,73.5C 71.5,82.1667 71.5,90.8333 71.5,99.5 Z"/></g>
<g><path style="opacity:1" fill="#c1abcf" d="M 78.5,74.5 C 79.9187,73.5489 81.5853,73.2155 83.5,73.5C 83.5,82.1667 83.5,90.8333 83.5,99.5C 82.5073,91.3501 82.1739,83.0168 82.5,74.5C 81.1667,74.5 79.8333,74.5 78.5,74.5 Z"/></g>
<g><path style="opacity:1" fill="#b296c4" d="M 119.5,69.5 C 120.653,75.6529 120.82,81.9863 120,88.5C 119.8,90.3197 118.966,91.653 117.5,92.5C 119.308,84.9787 119.975,77.3121 119.5,69.5 Z"/></g>
<g><path style="opacity:1" fill="#d8cae1" d="M 113.5,101.5 C 111.5,105.5 108.5,108.5 104.5,110.5C 107.167,107.167 110.167,104.167 113.5,101.5 Z"/></g>
<g><path style="opacity:1" fill="#dbcfe4" d="M 67.5,108.5 C 71.8235,109.164 76.1568,109.831 80.5,110.5C 84.1452,109.884 87.8119,109.55 91.5,109.5C 83.3576,112.438 75.3576,112.104 67.5,108.5 Z"/></g>
</svg>
