<?xml version="1.0" encoding="UTF-8"?>
<!DOCTYPE svg PUBLIC "-//W3C//DTD SVG 1.1//EN" "http://www.w3.org/Graphics/SVG/1.1/DTD/svg11.dtd">
<svg xmlns="http://www.w3.org/2000/svg" version="1.1" width="165px" height="153px" style="shape-rendering:geometricPrecision; text-rendering:geometricPrecision; image-rendering:optimizeQuality; fill-rule:evenodd; clip-rule:evenodd" xmlns:xlink="http://www.w3.org/1999/xlink">
<g><path style="opacity:1" fill="#fefefe" d="M -0.5,-0.5 C 54.5,-0.5 109.5,-0.5 164.5,-0.5C 164.5,50.5 164.5,101.5 164.5,152.5C 109.5,152.5 54.5,152.5 -0.5,152.5C -0.5,101.5 -0.5,50.5 -0.5,-0.5 Z"/></g>
<g><path style="opacity:1" fill="#754395" d="M 40.5,6.5 C 67.1687,6.33336 93.8354,6.50003 120.5,7C 136.566,9.72919 147.066,18.8959 152,34.5C 152.667,61.1667 152.667,87.8333 152,114.5C 149.828,129.352 141.662,139.519 127.5,145C 125.167,145.333 122.833,145.667 120.5,146C 93.8333,146.667 67.1667,146.667 40.5,146C 24.8675,141.041 15.7008,130.541 13,114.5C 12.3333,87.8333 12.3333,61.1667 13,34.5C 17.6844,20.6498 26.8511,11.3165 40.5,6.5 Z"/></g>
<g><path style="opacity:1" fill="#fdfdfd" d="M 40.5,8.5 C 67.8354,8.33336 95.1687,8.50002 122.5,9C 136.775,11.9402 145.942,20.4402 150,34.5C 150.667,61.8333 150.667,89.1667 150,116.5C 146.833,131.667 137.667,140.833 122.5,144C 95.1667,144.667 67.8333,144.667 40.5,144C 26.4402,139.942 17.9402,130.775 15,116.5C 14.3333,89.1667 14.3333,61.8333 15,34.5C 18.9904,21.3435 27.4904,12.6768 40.5,8.5 Z"/></g>
<g><path style="opacity:1" fill="#764596" d="M 50.5,43.5 C 69.5029,43.3334 88.5029,43.5001 107.5,44C 113.065,45.8879 115.898,49.7212 116,55.5C 117.713,56.8782 119.047,58.5448 120,60.5C 120.667,74.1667 120.667,87.8333 120,101.5C 118.998,105.68 116.498,108.514 112.5,110C 91.0778,110.977 69.7444,110.644 48.5,109C 47.2125,107.59 46.0458,106.09 45,104.5C 44.3333,85.8333 44.3333,67.1667 45,48.5C 46.7297,46.5981 48.563,44.9314 50.5,43.5 Z"/></g>
<g><path style="opacity:1" fill="#cfbdda" d="M 108.5,50.5 C 108.804,51.1499 109.137,51.8165 109.5,52.5C 91.8459,53.4995 74.1792,53.8329 56.5,53.5C 73.3381,52.8333 90.3381,52.1667 107.5,51.5C 107.291,50.914 106.957,50.414 106.5,50C 88.8333,49.3333 71.1667,49.3333 53.5,50C 52.2949,51.3756 50.9616,52.5423 49.5,53.5C 49.8588,51.629 50.8588,50.129 52.5,49C 70.8333,48.3333 89.1667,48.3333 107.5,49C 108.056,49.3826 108.389,49.8826 108.5,50.5 Z"/></g>
<g><path style="opacity:1" fill="#fdfcfd" d="M 56.5,53.5 C 55.2721,55.0098 55.2721,56.5098 56.5,58C 74.1635,58.4999 91.8302,58.6666 109.5,58.5C 113.573,59.587 115.239,62.2536 114.5,66.5C 109.821,66.3342 105.155,66.5008 100.5,67C 99.944,67.3826 99.6107,67.8826 99.5,68.5C 96.5,69.5 94.5,71.5 93.5,74.5C 92.8826,74.6107 92.3826,74.944 92,75.5C 91.2327,79.5935 91.566,83.5935 93,87.5C 93.3826,88.056 93.8826,88.3893 94.5,88.5C 96.6523,90.9848 99.3189,92.6515 102.5,93.5C 106.298,94.4834 110.298,94.8168 114.5,94.5C 114.5,96.5 114.5,98.5 114.5,100.5C 113.5,102.167 112.167,103.5 110.5,104.5C 91.4971,104.667 72.4971,104.5 53.5,104C 52.7562,102.961 51.7562,102.461 50.5,102.5C 49.5155,86.244 49.1822,69.9107 49.5,53.5C 50.9616,52.5423 52.2949,51.3756 53.5,50C 71.1667,49.3333 88.8333,49.3333 106.5,50C 106.957,50.414 107.291,50.914 107.5,51.5C 90.3381,52.1667 73.3381,52.8333 56.5,53.5 Z"/></g>
<g><path style="opacity:1" fill="#956fae" d="M 108.5,50.5 C 110.176,51.1834 110.843,52.5168 110.5,54.5C 92.8333,54.5 75.1667,54.5 57.5,54.5C 57.5,55.5 57.5,56.5 57.5,57.5C 75.008,57.17 92.3414,57.5033 109.5,58.5C 91.8302,58.6666 74.1635,58.4999 56.5,58C 55.2721,56.5098 55.2721,55.0098 56.5,53.5C 74.1792,53.8329 91.8459,53.4995 109.5,52.5C 109.137,51.8165 108.804,51.1499 108.5,50.5 Z"/></g>
<g><path style="opacity:1" fill="#b69cc7" d="M 114.5,66.5 C 109.637,67.2656 104.637,67.9322 99.5,68.5C 99.6107,67.8826 99.944,67.3826 100.5,67C 105.155,66.5008 109.821,66.3342 114.5,66.5 Z"/></g>
<g><path style="opacity:1" fill="#d1c0db" d="M 72.5,70.5 C 73.8333,70.5 75.1667,70.5 76.5,70.5C 76.5,69.5 76.5,68.5 76.5,67.5C 75.1667,67.5 73.8333,67.5 72.5,67.5C 73.9187,66.5489 75.5853,66.2155 77.5,66.5C 77.0773,68.7812 77.744,70.4479 79.5,71.5C 73.021,72.4907 66.3543,72.824 59.5,72.5C 60.9187,71.5489 62.5853,71.2155 64.5,71.5C 64.5,69.8333 64.5,68.1667 64.5,66.5C 66.1667,66.5 67.8333,66.5 69.5,66.5C 69.5,68.1667 69.5,69.8333 69.5,71.5C 70.791,71.7373 71.791,71.404 72.5,70.5 Z"/></g>
<g><path style="opacity:1" fill="#8b62a6" d="M 72.5,67.5 C 73.8333,67.5 75.1667,67.5 76.5,67.5C 76.5,68.5 76.5,69.5 76.5,70.5C 75.1667,70.5 73.8333,70.5 72.5,70.5C 72.5,69.5 72.5,68.5 72.5,67.5 Z"/></g>
<g><path style="opacity:1" fill="#794998" d="M 65.5,67.5 C 66.5,67.5 67.5,67.5 68.5,67.5C 68.5,68.5 68.5,69.5 68.5,70.5C 67.5,70.5 66.5,70.5 65.5,70.5C 65.5,69.5 65.5,68.5 65.5,67.5 Z"/></g>
<g><path style="opacity:1" fill="#774797" d="M 80.5,70.5 C 81.5,70.5 82.5,70.5 83.5,70.5C 83.5,71.8333 83.5,73.1667 83.5,74.5C 83.1667,75.5 82.5,76.1667 81.5,76.5C 79.8333,76.5 78.1667,76.5 76.5,76.5C 76.5,81.8333 76.5,87.1667 76.5,92.5C 75.8333,92.5 75.1667,92.5 74.5,92.5C 73.8333,87.1667 73.1667,81.8333 72.5,76.5C 71.5,76.5 70.5,76.5 69.5,76.5C 69.5,81.8333 69.5,87.1667 69.5,92.5C 68.8333,92.5 68.1667,92.5 67.5,92.5C 65.5539,87.6042 64.8872,82.2709 65.5,76.5C 64.1667,76.5 62.8333,76.5 61.5,76.5C 61.5,77.5 61.5,78.5 61.5,79.5C 60.5,79.5 59.5,79.5 58.5,79.5C 58.5,77.8333 58.5,76.1667 58.5,74.5C 58.8333,73.8333 59.1667,73.1667 59.5,72.5C 66.3543,72.824 73.021,72.4907 79.5,71.5C 79.5,70.8333 79.8333,70.5 80.5,70.5 Z"/></g>
<g><path style="opacity:1" fill="#a685bb" d="M 80.5,70.5 C 81.5676,69.5655 82.901,69.2322 84.5,69.5C 84.7845,71.4147 84.4511,73.0813 83.5,74.5C 83.5,73.1667 83.5,71.8333 83.5,70.5C 82.5,70.5 81.5,70.5 80.5,70.5 Z"/></g>
<g><path style="opacity:1" fill="#f5f1f7" d="M 101.5,74.5 C 110.402,74.5134 112.402,78.0134 107.5,85C 100.495,86.3236 97.9949,83.4902 100,76.5C 100.717,75.9558 101.217,75.2891 101.5,74.5 Z"/></g>
<g><path style="opacity:1" fill="#9874b1" d="M 72.5,76.5 C 73.1667,81.8333 73.8333,87.1667 74.5,92.5C 74.1583,93.3382 73.4916,93.6716 72.5,93.5C 72.5,87.8333 72.5,82.1667 72.5,76.5 Z"/></g>
<g><path style="opacity:1" fill="#b195c3" d="M 58.5,74.5 C 58.5,76.1667 58.5,77.8333 58.5,79.5C 59.5,79.5 60.5,79.5 61.5,79.5C 61.5,78.5 61.5,77.5 61.5,76.5C 62.8333,76.5 64.1667,76.5 65.5,76.5C 64.8872,82.2709 65.5539,87.6042 67.5,92.5C 66.791,93.404 65.791,93.7373 64.5,93.5C 64.8282,88.1254 64.4948,82.7921 63.5,77.5C 62.6143,78.325 62.281,79.325 62.5,80.5C 60.8333,80.5 59.1667,80.5 57.5,80.5C 57.2053,78.2646 57.5386,76.2646 58.5,74.5 Z"/></g>
<g><path style="opacity:1" fill="#dcd0e4" d="M 72.5,76.5 C 72.5,82.1667 72.5,87.8333 72.5,93.5C 71.6733,88.3491 71.1733,83.0158 71,77.5C 70.8261,82.6835 70.3261,87.6835 69.5,92.5C 69.5,87.1667 69.5,81.8333 69.5,76.5C 70.5,76.5 71.5,76.5 72.5,76.5 Z"/></g>
<g><path style="opacity:1" fill="#b59bc6" d="M 81.5,76.5 C 80.4324,77.4345 79.099,77.7678 77.5,77.5C 77.8205,82.6946 77.4872,87.6946 76.5,92.5C 76.5,87.1667 76.5,81.8333 76.5,76.5C 78.1667,76.5 79.8333,76.5 81.5,76.5 Z"/></g>
<g><path style="opacity:1" fill="#c9b6d6" d="M 93.5,74.5 C 92.1327,79.2703 92.466,83.937 94.5,88.5C 93.8826,88.3893 93.3826,88.056 93,87.5C 91.566,83.5935 91.2327,79.5935 92,75.5C 92.3826,74.944 92.8826,74.6107 93.5,74.5 Z"/></g>
<g><path style="opacity:1" fill="#cebcd9" d="M 102.5,93.5 C 106.833,93.5 111.167,93.5 115.5,93.5C 115.802,96.0593 115.468,98.3926 114.5,100.5C 114.5,98.5 114.5,96.5 114.5,94.5C 110.298,94.8168 106.298,94.4834 102.5,93.5 Z"/></g>
<g><path style="opacity:1" fill="#c9b6d6" d="M 50.5,102.5 C 51.7562,102.461 52.7562,102.961 53.5,104C 72.4971,104.5 91.4971,104.667 110.5,104.5C 91.3377,105.662 72.0044,105.829 52.5,105C 51.6195,104.292 50.9528,103.458 50.5,102.5 Z"/></g>
</svg>
