<svg width="81" height="81" viewBox="0 0 81 81" fill="none" xmlns="http://www.w3.org/2000/svg">
<g clip-path="url(#clip0_2_36)">
<rect width="81" height="81" rx="18" fill="white"/>
<circle cx="41" cy="41" r="14.9091" fill="white" stroke="#670099" stroke-width="2.18182"/>
<path d="M38.815 34.4619H36.6697C36.4956 34.4619 36.3588 34.3189 36.3588 34.151V32.5837C36.3588 32.4095 36.5018 32.2727 36.6697 32.2727H38.815C38.9891 32.2727 39.1259 32.4158 39.1259 32.5837V34.151C39.1321 34.3189 38.9891 34.4619 38.815 34.4619ZM43.8828 34.4619H41.7376C41.5635 34.4619 41.4267 34.3189 41.4267 34.151V32.5837C41.4267 32.4095 41.5697 32.2727 41.7376 32.2727H43.8828C44.057 32.2727 44.1938 32.4158 44.1938 32.5837V34.151C44.1938 34.3189 44.057 34.4619 43.8828 34.4619ZM34.369 40.6627H31.5459V38.6538C31.5459 38.6538 31.6578 35.88 34.2633 35.8426H46.1649V34.2069H49.0004V35.7867C49.0004 35.7867 48.9258 38.6414 46.3017 38.6787L44.2 38.7347L44.2311 48.4493C44.2311 48.4493 44.2622 48.6111 44.0694 48.7168L41.8806 49.4942C41.8806 49.4942 41.3956 49.6932 41.3769 49.2019V38.6911H39.1881V48.3498C39.1881 48.3498 39.2503 48.6359 38.9331 48.7728L36.9247 49.4818C36.9247 49.4818 36.2966 49.7181 36.3028 49.0899V38.6725H34.3814L34.369 40.6627Z" fill="#670099"/>
<circle cx="2" cy="41" r="14.9091" fill="white" stroke="#670099" stroke-width="2.18182"/>
<path d="M-0.185001 34.4619H-2.33029C-2.5044 34.4619 -2.6412 34.3189 -2.6412 34.151V32.5837C-2.6412 32.4095 -2.49818 32.2727 -2.33029 32.2727H-0.185001C-0.0108909 32.2727 0.12591 32.4158 0.12591 32.5837V34.151C0.132128 34.3189 -0.0108909 34.4619 -0.185001 34.4619ZM4.88285 34.4619H2.73756C2.56345 34.4619 2.42665 34.3189 2.42665 34.151V32.5837C2.42665 32.4095 2.56967 32.2727 2.73756 32.2727H4.88285C5.05696 32.2727 5.19376 32.4158 5.19376 32.5837V34.151C5.19376 34.3189 5.05696 34.4619 4.88285 34.4619ZM-4.63103 40.6627H-7.4541V38.6538C-7.4541 38.6538 -7.34217 35.88 -4.73674 35.8426H7.16494V34.2069H10.0004V35.7867C10.0004 35.7867 9.92583 38.6414 7.30174 38.6787L5.19998 38.7347L5.23107 48.4493C5.23107 48.4493 5.26216 48.6111 5.0694 48.7168L2.88058 49.4942C2.88058 49.4942 2.39556 49.6932 2.37691 49.2019V38.6911H0.188092V48.3498C0.188092 48.3498 0.250274 48.6359 -0.0668553 48.7728L-2.07534 49.4818C-2.07534 49.4818 -2.70338 49.7181 -2.69716 49.0899V38.6725H-4.61859L-4.63103 40.6627Z" fill="#670099"/>
<circle cx="80" cy="41" r="14.9091" fill="white" stroke="#670099" stroke-width="2.18182"/>
<path d="M77.815 34.4619H75.6697C75.4956 34.4619 75.3588 34.3189 75.3588 34.151V32.5837C75.3588 32.4095 75.5018 32.2727 75.6697 32.2727H77.815C77.9891 32.2727 78.1259 32.4158 78.1259 32.5837V34.151C78.1321 34.3189 77.9891 34.4619 77.815 34.4619ZM82.8828 34.4619H80.7376C80.5635 34.4619 80.4267 34.3189 80.4267 34.151V32.5837C80.4267 32.4095 80.5697 32.2727 80.7376 32.2727H82.8828C83.057 32.2727 83.1938 32.4158 83.1938 32.5837V34.151C83.1938 34.3189 83.057 34.4619 82.8828 34.4619ZM73.369 40.6627H70.5459V38.6538C70.5459 38.6538 70.6578 35.88 73.2633 35.8426H85.1649V34.2069H88.0004V35.7867C88.0004 35.7867 87.9258 38.6414 85.3017 38.6787L83.2 38.7347L83.2311 48.4493C83.2311 48.4493 83.2622 48.6111 83.0694 48.7168L80.8806 49.4942C80.8806 49.4942 80.3956 49.6932 80.3769 49.2019V38.6911H78.1881V48.3498C78.1881 48.3498 78.2503 48.6359 77.9331 48.7728L75.9247 49.4818C75.9247 49.4818 75.2966 49.7181 75.3028 49.0899V38.6725H73.3814L73.369 40.6627Z" fill="#670099"/>
<rect x="12.5" y="38.5" width="17" height="4" rx="1" fill="#670099" stroke="white"/>
<rect x="51.5" y="38.5" width="17" height="4" rx="1" fill="#670099" stroke="white"/>
</g>
<rect x="0.5" y="0.5" width="80" height="80" rx="17.5" stroke="#670099"/>
<defs>
<clipPath id="clip0_2_36">
<rect width="81" height="81" rx="18" fill="white"/>
</clipPath>
</defs>
</svg>
