<svg width="81" height="81" viewBox="0 0 81 81" fill="none" xmlns="http://www.w3.org/2000/svg">
<rect width="81" height="81" rx="18" fill="white"/>
<rect x="0.5" y="0.5" width="80" height="80" rx="17.5" stroke="#670099"/>
<path d="M39.2469 37.8814H37.4033C37.2537 37.8814 37.1361 37.7584 37.1361 37.6141V36.2672C37.1361 36.1176 37.259 36 37.4033 36H39.2469C39.3965 36 39.5141 36.1229 39.5141 36.2672V37.6141C39.5194 37.7584 39.3965 37.8814 39.2469 37.8814ZM43.6021 37.8814H41.7585C41.6088 37.8814 41.4913 37.7584 41.4913 37.6141V36.2672C41.4913 36.1176 41.6142 36 41.7585 36H43.6021C43.7517 36 43.8693 36.1229 43.8693 36.2672V37.6141C43.8693 37.7584 43.7517 37.8814 43.6021 37.8814ZM35.4261 43.2101H33V41.4838C33 41.4838 33.0962 39.1 35.3352 39.0679H45.5632V37.6622H48V39.0198C48 39.0198 47.9359 41.4731 45.6808 41.5051L43.8746 41.5532L43.9013 49.9018C43.9013 49.9018 43.928 50.0408 43.7624 50.1316L41.8814 50.7997C41.8814 50.7997 41.4646 50.9708 41.4485 50.5485V41.5158H39.5675V49.8163C39.5675 49.8163 39.6209 50.0621 39.3484 50.1797L37.6224 50.789C37.6224 50.789 37.0827 50.9921 37.088 50.4523V41.4998H35.4368L35.4261 43.2101Z" fill="#670099"/>
<rect x="39" y="16" width="3" height="6" rx="1.5" fill="#670099"/>
<rect x="58.9336" y="23.9677" width="3" height="6" rx="1.5" transform="rotate(51.8669 58.9336 23.9677)" fill="#670099"/>
<rect x="24.7197" y="56" width="3" height="6" rx="1.5" transform="rotate(51.8669 24.7197 56)" fill="#670099"/>
<rect x="67.0381" y="40.104" width="3" height="6" rx="1.5" transform="rotate(87.021 67.0381 40.104)" fill="#670099"/>
<rect x="19.9922" y="41" width="3" height="6" rx="1.5" transform="rotate(87.021 19.9922 41)" fill="#670099"/>
<rect x="60.6338" y="60.4509" width="3" height="6" rx="1.5" transform="rotate(125.109 60.6338 60.4509)" fill="#670099"/>
<rect x="26.6338" y="27.4509" width="3" height="6" rx="1.5" transform="rotate(125.109 26.6338 27.4509)" fill="#670099"/>
<path d="M32.9765 59.951V60.6995C32.9765 62.0857 33.4096 63.4371 34.2153 64.5651C35.4637 66.3128 37.4792 67.3501 39.6271 67.3501H40.8259C42.9737 67.3501 44.9893 66.3128 46.2377 64.5651C47.0434 63.4371 47.4765 62.0856 47.4765 60.6995V59.951C47.4765 58.3633 48.1072 56.8407 49.2298 55.7181L51.8081 53.1398C54.0855 50.8624 55.8863 47.9047 56.191 44.4771C56.3444 42.7512 56.3766 40.6926 55.9281 38.9718C55.265 36.4281 54.3349 34.2338 52.8992 32.3841C51.4545 30.5227 49.5607 29.0911 47.0912 27.9818C44.8935 26.9946 42.8384 26.4887 40.7319 26.5002C38.6308 26.5116 36.5794 27.0373 34.3894 27.9701C31.847 29.0529 29.8845 30.4594 28.3581 32.3085C26.8408 34.1465 25.8185 36.3445 25.0413 38.9162C24.5621 40.5019 24.4695 42.3979 24.5077 44.0408C24.5928 47.706 26.4331 50.928 28.8603 53.3552L31.2231 55.7181C32.3458 56.8407 32.9765 58.3633 32.9765 59.951Z" stroke="#670099" stroke-width="3"/>
</svg>
