<svg width="81" height="81" viewBox="0 0 81 81" fill="none" xmlns="http://www.w3.org/2000/svg">
<rect x="0.5" y="0.5" width="80" height="80" rx="17.5" fill="white"/>
<rect x="0.5" y="0.5" width="80" height="80" rx="17.5" stroke="#670099"/>
<path d="M56.5845 54.1149L56.1414 53.6512H55.5H24C21.5147 53.6512 19.5 51.6364 19.5 49.1512V24C19.5 21.5147 21.5147 19.5 24 19.5H57C59.4853 19.5 61.5 21.5147 61.5 24V59.259L56.5845 54.1149Z" fill="white" stroke="#670099" stroke-width="3"/>
<path d="M38.9284 29.3878H36.5885C36.3986 29.3878 36.2494 29.2318 36.2494 29.0486V27.3392C36.2494 27.1492 36.4054 27 36.5885 27H38.9284C39.1183 27 39.2675 27.156 39.2675 27.3392V29.0486C39.2743 29.2318 39.1183 29.3878 38.9284 29.3878ZM44.4559 29.3878H42.1161C41.9262 29.3878 41.7769 29.2318 41.7769 29.0486V27.3392C41.7769 27.1492 41.9329 27 42.1161 27H44.4559C44.6458 27 44.795 27.156 44.795 27.3392V29.0486C44.795 29.2318 44.6458 29.3878 44.4559 29.3878ZM34.0791 36.1509H31V33.9599C31 33.9599 31.1221 30.9344 33.9638 30.8937H46.945V29.1097H50.0377V30.8327C50.0377 30.8327 49.9563 33.9463 47.0942 33.987L44.8018 34.0481L44.8357 44.6439C44.8357 44.6439 44.8696 44.8202 44.6594 44.9356L42.272 45.7835C42.272 45.7835 41.743 46.0006 41.7227 45.4647V34.0006H39.3353V44.5353C39.3353 44.5353 39.4032 44.8474 39.0573 44.9966L36.8666 45.7699C36.8666 45.7699 36.1816 46.0277 36.1884 45.3426V33.9802H34.0927L34.0791 36.1509Z" fill="#670099"/>
</svg>
