<svg width="81" height="81" viewBox="0 0 81 81" fill="none" xmlns="http://www.w3.org/2000/svg">
<rect x="0.5" y="0.5" width="80" height="80" rx="17.5" fill="white"/>
<rect x="0.5" y="0.5" width="80" height="80" rx="17.5" stroke="#670099"/>
<rect x="17.5" y="20.5" width="47" height="33" fill="#670099" stroke="#670099" stroke-width="3"/>
<rect x="20" y="22" width="42" height="26" fill="white"/>
<path d="M40.2469 28.8814H38.4033C38.2537 28.8814 38.1361 28.7584 38.1361 28.6141V27.2672C38.1361 27.1176 38.259 27 38.4033 27H40.2469C40.3965 27 40.5141 27.1229 40.5141 27.2672V28.6141C40.5194 28.7584 40.3965 28.8814 40.2469 28.8814ZM44.6021 28.8814H42.7585C42.6088 28.8814 42.4913 28.7584 42.4913 28.6141V27.2672C42.4913 27.1176 42.6142 27 42.7585 27H44.6021C44.7517 27 44.8693 27.1229 44.8693 27.2672V28.6141C44.8693 28.7584 44.7517 28.8814 44.6021 28.8814ZM36.4261 34.2101H34V32.4838C34 32.4838 34.0962 30.1 36.3352 30.0679H46.5632V28.6622H49V30.0198C49 30.0198 48.9359 32.4731 46.6808 32.5051L44.8746 32.5532L44.9013 40.9018C44.9013 40.9018 44.928 41.0408 44.7624 41.1316L42.8814 41.7997C42.8814 41.7997 42.4646 41.9708 42.4485 41.5485V32.5158H40.5675V40.8163C40.5675 40.8163 40.6209 41.0621 40.3484 41.1797L38.6224 41.789C38.6224 41.789 38.0827 41.9921 38.088 41.4523V32.4998H36.4368L36.4261 34.2101Z" fill="#670099"/>
<path d="M55.8906 39.4078L55.8907 39.4079L55.8968 39.4018L59.1551 36.1435C59.1554 36.1432 59.1557 36.1429 59.156 36.1426C59.465 35.839 59.63 35.4293 59.63 35C59.63 34.5681 59.4583 34.1597 59.1568 33.8582L55.8968 30.5982C55.6542 30.3556 55.2559 30.3556 55.0133 30.5982C54.7706 30.8409 54.7706 31.2392 55.0133 31.4818L58.2733 34.7418C58.4156 34.8842 58.4156 35.1159 58.2733 35.2582L55.0133 38.5182C54.7706 38.7609 54.7706 39.1592 55.0133 39.4018C55.1376 39.5261 55.2973 39.585 55.455 39.585C55.6201 39.585 55.7745 39.5161 55.8906 39.4078Z" fill="#670099" stroke="#670099" stroke-width="0.5"/>
<path d="M27.1094 30.5922L27.1093 30.5921L27.1032 30.5982L23.8449 33.8565C23.8446 33.8568 23.8443 33.8571 23.844 33.8574C23.535 34.161 23.37 34.5707 23.37 35C23.37 35.4319 23.5417 35.8403 23.8432 36.1418L27.1032 39.4018C27.3458 39.6444 27.7441 39.6444 27.9867 39.4018C28.2294 39.1591 28.2294 38.7608 27.9867 38.5182L24.7267 35.2582C24.5844 35.1158 24.5844 34.8841 24.7267 34.7418L27.9867 31.4818C28.2294 31.2391 28.2294 30.8408 27.9867 30.5982C27.8624 30.4739 27.7027 30.415 27.545 30.415C27.3799 30.415 27.2255 30.4839 27.1094 30.5922Z" fill="#670099" stroke="#670099" stroke-width="0.5"/>
<rect x="37" y="55" width="9" height="6" fill="#670099"/>
<rect x="32" y="59" width="19" height="4" fill="#670099"/>
<circle cx="41.5" cy="51.5" r="1.5" fill="white"/>
</svg>
