<svg width="81" height="81" viewBox="0 0 81 81" fill="none" xmlns="http://www.w3.org/2000/svg">
<rect width="81" height="81" rx="18" fill="white"/>
<rect x="0.5" y="0.5" width="80" height="80" rx="17.5" stroke="#670099"/>
<path d="M63.3371 49.7857C63.0926 52.6749 62.2806 55.48 60.9426 58.0345C59.6634 60.5064 57.9365 62.6818 55.8204 64.4898C54.0068 66.0478 51.9536 67.2792 49.7532 68.1391C47.0582 69.4218 43.8501 70.035 40.4693 69.7426C37.7659 69.5087 35.2699 68.7233 33.1337 67.5351C32.837 67.3968 32.5462 67.2485 32.2562 67.0896C29.8329 65.7907 27.7102 64.0436 25.9354 61.8991C24.1763 59.7735 22.8394 57.3155 21.9976 54.6602C21.1186 51.908 20.8032 49.0347 21.055 46.1227C21.346 42.8217 22.369 39.625 24.0561 36.7902C25.7407 33.9787 28.0214 31.5934 30.7279 29.8131C31.8525 29.0671 32.8905 28.1965 33.8249 27.2116C35.1717 25.7997 36.2628 24.19 37.0819 22.4279C37.7536 20.9869 38.1344 19.2161 38.2188 17.1856L38.3452 14.21C38.3622 13.8191 38.7969 13.5991 39.1023 13.8246L41.4554 15.5389C44.6766 17.8905 47.1414 21.0844 48.7701 25.0433C50.7397 29.8106 51.4574 34.0948 50.9156 37.7899C50.9006 37.8999 50.9304 38.0137 51.0091 38.0967C51.0916 38.1917 51.1925 38.2121 51.261 38.2121C51.3295 38.2122 51.428 38.1914 51.5207 38.1058C52.9132 36.7681 53.9345 35.369 54.5456 33.9696L55.525 31.7354C55.5371 31.7086 55.5501 31.684 55.5651 31.6609C55.5846 31.6305 55.6071 31.6026 55.6356 31.5751C55.8284 31.3868 56.1357 31.3958 56.3229 31.5994L57.9285 33.3955C59.8711 35.5721 61.3586 38.1369 62.2907 40.9346C63.2453 43.7988 63.5975 46.7748 63.3371 49.7857Z" fill="#670099"/>
<path d="M46.5833 44H37.4166C34.8866 44 32.8333 46.23 32.8333 48.98V54.96V55.96C32.8333 58.71 34.8866 60.94 37.4166 60.94H38.7916C39.0391 60.94 39.3691 61.12 39.5249 61.34L40.8999 63.33C41.5049 64.21 42.4949 64.21 43.0999 63.33L44.4749 61.34C44.6491 61.09 44.9241 60.94 45.2083 60.94H46.5833C49.1133 60.94 51.1666 58.71 51.1666 55.96V48.98C51.1666 46.23 49.1133 44 46.5833 44ZM38.3333 54C37.8199 54 37.4166 53.55 37.4166 53C37.4166 52.45 37.8291 52 38.3333 52C38.8374 52 39.2499 52.45 39.2499 53C39.2499 53.55 38.8466 54 38.3333 54ZM41.9999 54C41.4866 54 41.0833 53.55 41.0833 53C41.0833 52.45 41.4958 52 41.9999 52C42.5041 52 42.9166 52.45 42.9166 53C42.9166 53.55 42.5133 54 41.9999 54ZM45.6666 54C45.1533 54 44.7499 53.55 44.7499 53C44.7499 52.45 45.1624 52 45.6666 52C46.1708 52 46.5833 52.45 46.5833 53C46.5833 53.55 46.1799 54 45.6666 54Z" fill="white"/>
</svg>
