<svg width="81" height="81" viewBox="0 0 81 81" fill="none" xmlns="http://www.w3.org/2000/svg">
<rect x="0.5" y="0.5" width="80" height="80" rx="17.5" fill="white"/>
<rect x="0.5" y="0.5" width="80" height="80" rx="17.5" stroke="#670099"/>
<rect x="15.5" y="25.5" width="47" height="32" rx="2.5" fill="white" stroke="#670099" stroke-width="3"/>
<rect x="38" y="32" width="22" height="3" fill="#670099"/>
<rect x="38" y="40" width="22" height="3" fill="#670099"/>
<rect x="38" y="47" width="22" height="3" fill="#670099"/>
<circle cx="58" cy="53" r="11.1818" fill="white" stroke="#670099" stroke-width="1.63636"/>
<path d="M56.361 48.0964H54.752C54.6215 48.0964 54.5189 47.9892 54.5189 47.8632V46.6878C54.5189 46.5571 54.6261 46.4545 54.752 46.4545H56.361C56.4916 46.4545 56.5942 46.5618 56.5942 46.6878V47.8632C56.5989 47.9892 56.4916 48.0964 56.361 48.0964ZM60.1619 48.0964H58.5529C58.4223 48.0964 58.3197 47.9892 58.3197 47.8632V46.6878C58.3197 46.5571 58.427 46.4545 58.5529 46.4545H60.1619C60.2925 46.4545 60.3951 46.5618 60.3951 46.6878V47.8632C60.3951 47.9892 60.2925 48.0964 60.1619 48.0964ZM53.0265 52.747H50.9092V51.2404C50.9092 51.2404 50.9931 49.16 52.9472 49.132H61.8735V47.9052H64.0001V49.09C64.0001 49.09 63.9441 51.231 61.9761 51.259L60.3997 51.301L60.4231 58.587C60.4231 58.587 60.4464 58.7083 60.3018 58.7876L58.6602 59.3707C58.6602 59.3707 58.2964 59.5199 58.2824 59.1514V51.2683H56.6408V58.5124C56.6408 58.5124 56.6875 58.7269 56.4496 58.8296L54.9433 59.3613C54.9433 59.3613 54.4722 59.5386 54.4769 59.0675V51.2543H53.0358L53.0265 52.747Z" fill="#670099"/>
<path d="M27.0001 42C29.5314 42 31.5834 39.7614 31.5834 37C31.5834 34.2386 29.5314 32 27.0001 32C24.4688 32 22.4167 34.2386 22.4167 37C22.4167 39.7614 24.4688 42 27.0001 42Z" fill="#670099"/>
<path d="M27 44.5C22.4075 44.5 18.6675 47.86 18.6675 52C18.6675 52.28 18.8691 52.5 19.1258 52.5H34.8741C35.1308 52.5 35.3325 52.28 35.3325 52C35.3325 47.86 31.5925 44.5 27 44.5Z" fill="#670099"/>
</svg>
