<svg width="81" height="81" viewBox="0 0 81 81" fill="none" xmlns="http://www.w3.org/2000/svg">
<rect x="0.5" y="0.5" width="80" height="80" rx="17.5" fill="white"/>
<rect x="0.5" y="0.5" width="80" height="80" rx="17.5" stroke="#670099"/>
<circle cx="41" cy="41" r="20.5" fill="white" stroke="#670099" stroke-width="3"/>
<path d="M37.995 32.0102H35.0452C34.8058 32.0102 34.6177 31.8135 34.6177 31.5826V29.4276C34.6177 29.1881 34.8144 29 35.0452 29H37.995C38.2344 29 38.4225 29.1967 38.4225 29.4276V31.5826C38.4311 31.8135 38.2344 32.0102 37.995 32.0102ZM44.9633 32.0102H42.0135C41.7741 32.0102 41.586 31.8135 41.586 31.5826V29.4276C41.586 29.1881 41.7827 29 42.0135 29H44.9633C45.2027 29 45.3908 29.1967 45.3908 29.4276V31.5826C45.3908 31.8135 45.2027 32.0102 44.9633 32.0102ZM31.8817 40.5362H28V37.774C28 37.774 28.1539 33.96 31.7364 33.9087H48.1012V31.6596H52V33.8317C52 33.8317 51.8974 37.7569 48.2893 37.8082L45.3994 37.8852L45.4421 51.2429C45.4421 51.2429 45.4849 51.4652 45.2198 51.6106L42.2102 52.6796C42.2102 52.6796 41.5433 52.9532 41.5176 52.2776V37.8253H38.508V51.1061C38.508 51.1061 38.5935 51.4994 38.1575 51.6876L35.3958 52.6625C35.3958 52.6625 34.5322 52.9874 34.5408 52.1237V37.7997H31.8988L31.8817 40.5362Z" fill="#670099"/>
</svg>
