<svg width="81" height="81" viewBox="0 0 81 81" fill="none" xmlns="http://www.w3.org/2000/svg">
<rect width="81" height="81" rx="18" fill="white"/>
<rect x="0.5" y="0.5" width="80" height="80" rx="17.5" stroke="#670099"/>
<path d="M19.5 53V29C19.5 25.6863 22.1863 23 25.5 23H51C54.3137 23 57 25.6863 57 29V29.5C59.4853 29.5 61.5 31.5147 61.5 34V53C61.5 56.3137 58.8137 59 55.5 59H25.5C22.1863 59 19.5 56.3137 19.5 53Z" fill="white"/>
<path d="M25.5 29.5H57M57 29.5V29.5C59.4853 29.5 61.5 31.5147 61.5 34V53C61.5 56.3137 58.8137 59 55.5 59H25.5C22.1863 59 19.5 56.3137 19.5 53V29C19.5 25.6863 22.1863 23 25.5 23H51C54.3137 23 57 25.6863 57 29V29.5Z" stroke="#670099" stroke-width="3"/>
<path d="M32.6633 37.0068H30.6968C30.5372 37.0068 30.4118 36.8757 30.4118 36.7217V35.2851C30.4118 35.1254 30.5429 35 30.6968 35H32.6633C32.8229 35 32.9483 35.1311 32.9483 35.2851V36.7217C32.954 36.8757 32.8229 37.0068 32.6633 37.0068ZM37.3089 37.0068H35.3424C35.1828 37.0068 35.0574 36.8757 35.0574 36.7217V35.2851C35.0574 35.1254 35.1885 35 35.3424 35H37.3089C37.4685 35 37.5939 35.1311 37.5939 35.2851V36.7217C37.5939 36.8757 37.4685 37.0068 37.3089 37.0068ZM28.5878 42.6908H26V40.8493C26 40.8493 26.1026 38.3066 28.4909 38.2724H39.4008V36.773H42V38.2211C42 38.2211 41.9316 40.8379 39.5262 40.8721L37.5996 40.9235L37.6281 49.8286C37.6281 49.8286 37.6566 49.9768 37.4799 50.0737L35.4735 50.7864C35.4735 50.7864 35.0289 50.9688 35.0118 50.5184V40.8835H33.0053V49.7374C33.0053 49.7374 33.0623 49.9996 32.7716 50.125L30.9305 50.775C30.9305 50.775 30.3548 50.9916 30.3605 50.4158V40.8664H28.5992L28.5878 42.6908Z" fill="#670099"/>
<path d="M46 42.5C46 38.3579 49.3579 35 53.5 35H62V50H53.5C49.3579 50 46 46.6421 46 42.5V42.5Z" fill="#670099"/>
<circle cx="54" cy="43" r="3" fill="white"/>
</svg>
