<svg width="513" height="495" viewBox="0 0 513 495" fill="none" xmlns="http://www.w3.org/2000/svg">
<g filter="url(#filter0_d_467_4120)">
<path d="M246.011 462.011C374.7 462.011 479.022 361.497 479.022 237.506C479.022 113.515 374.7 13 246.011 13C117.323 13 13 113.515 13 237.506C13 361.497 117.323 462.011 246.011 462.011Z" fill="#F8B34B"/>
<path d="M246.011 462.011C374.7 462.011 479.022 361.497 479.022 237.506C479.022 113.515 374.7 13 246.011 13C117.323 13 13 113.515 13 237.506C13 361.497 117.323 462.011 246.011 462.011Z" stroke="#F8B34B" stroke-width="2.3208" stroke-miterlimit="10"/>
</g>
<path d="M205.566 166.064L218.826 130.344L231.746 166.064H244.621L266.617 107H251.14L237.644 144.259L225.049 107H213.578L199.683 144.102L187.222 107H170.695L192.617 166.064H205.566Z" fill="#551B70"/>
<path d="M317.496 154.171H288.892V142.023H315.411V130.116H288.892V118.807H317.496V107H273.489V166.064H317.496V154.171Z" fill="#551B70"/>
<path d="M173.77 254.633H201.383L206.838 266.611H222.921L194.051 207.533H181.014L152.307 266.611H168.39L173.77 254.633ZM187.429 223.456H187.858L196.387 242.898H178.959L187.429 223.456Z" fill="#551B70"/>
<path d="M264.399 266.611H281.96L272.648 249.762C271.376 247.355 269.75 245.489 267.784 244.15C267.001 243.623 266.173 243.225 265.301 242.911C266.129 242.655 266.927 242.356 267.696 242.014C271.007 240.533 273.52 238.439 275.264 235.733C277.008 233.027 277.881 229.737 277.881 225.891C277.881 220.137 275.959 215.637 272.101 212.404C268.243 209.156 262.773 207.547 255.707 207.547H226.749V266.625H242.832V244.592H247.355C248.922 244.592 250.327 244.82 251.568 245.261C252.81 245.703 253.756 246.543 254.392 247.782L264.399 266.639V266.611ZM252.913 233.597H242.832V219.354H252.913C256.047 219.354 258.427 219.938 260.038 221.12C261.65 222.302 262.477 224.054 262.477 226.404C262.477 228.754 261.664 230.606 260.038 231.802C258.412 232.998 256.032 233.611 252.913 233.611V233.597Z" fill="#551B70"/>
<path d="M332.768 219.354V207.547H288.762V266.611H332.768V254.718H304.15V242.569H330.684V230.677H304.15V219.354H332.768Z" fill="#551B70"/>
<path d="M173.784 330.888H149.083V308.1H133V367.178H149.083V343.535H173.784V367.178H189.867V308.1H173.784V330.888Z" fill="#551B70"/>
<path d="M201.176 367.178H245.182V355.271H216.579V343.122H243.098V331.215H216.579V319.907H245.182V308.1H201.176V367.178Z" fill="#551B70"/>
<path d="M294.674 344.717C293.89 344.19 293.063 343.791 292.191 343.478C293.018 343.221 293.817 342.922 294.585 342.58C297.896 341.099 300.409 339.005 302.154 336.299C303.898 333.593 304.77 330.303 304.77 326.458C304.77 320.704 302.848 316.203 298.99 312.97C295.132 309.737 289.663 308.113 282.597 308.113H253.639V367.191H269.722V345.158H274.245C275.812 345.158 277.216 345.386 278.458 345.828C279.7 346.269 280.646 347.109 281.281 348.349L291.289 367.206H308.85L299.537 350.357C298.266 347.95 296.64 346.084 294.674 344.745V344.717ZM279.803 334.163H269.722V319.92H279.803C282.937 319.92 285.317 320.504 286.928 321.686C288.554 322.854 289.367 324.62 289.367 326.97C289.367 329.32 288.554 331.172 286.928 332.368C285.302 333.565 282.922 334.163 279.803 334.163Z" fill="#551B70"/>
<path d="M359.641 319.907V308.1H315.635V367.178H359.641V355.271H331.023V343.122H357.557V331.215H331.023V319.907H359.641Z" fill="#551B70"/>
<defs>
<filter id="filter0_d_467_4120" x="7.4052" y="7.4052" width="497.907" height="480.896" filterUnits="userSpaceOnUse" color-interpolation-filters="sRGB">
<feFlood flood-opacity="0" result="BackgroundImageFix"/>
<feColorMatrix in="SourceAlpha" type="matrix" values="0 0 0 0 0 0 0 0 0 0 0 0 0 0 0 0 0 0 127 0" result="hardAlpha"/>
<feOffset dx="10.3475" dy="10.3475"/>
<feGaussianBlur stdDeviation="7.39108"/>
<feColorMatrix type="matrix" values="0 0 0 0 0 0 0 0 0 0 0 0 0 0 0 0 0 0 0.75 0"/>
<feBlend mode="normal" in2="BackgroundImageFix" result="effect1_dropShadow_467_4120"/>
<feBlend mode="normal" in="SourceGraphic" in2="effect1_dropShadow_467_4120" result="shape"/>
</filter>
</defs>
</svg>
